<?xml version="1.0" encoding="UTF-8"?>
<svg id="a" data-name="Layer 1" xmlns="http://www.w3.org/2000/svg" width="452.61mm" height="303.11mm" xmlns:xlink="http://www.w3.org/1999/xlink" viewBox="0 0 1283 859.22">
  <defs>
    <linearGradient id="b" x1="691.13" y1="3.71" x2="613.31" y2="854.81" gradientUnits="userSpaceOnUse">
      <stop offset="0" stop-color="#e4e405"/>
      <stop offset=".31" stop-color="#dbde00"/>
      <stop offset="1" stop-color="#63ad00"/>
    </linearGradient>
    <linearGradient id="c" x1="527.84" y1="506.75" x2="518.32" y2="610.93" xlink:href="#b"/>
    <linearGradient id="d" x1="805.94" y1="261.02" x2="794.73" y2="383.56" xlink:href="#b"/>
    <linearGradient id="e" x1="683.53" y1="56.59" x2="615.39" y2="801.88" xlink:href="#b"/>
    <linearGradient id="f" x1="790.27" y1="147.59" x2="772.08" y2="346.48" xlink:href="#b"/>
    <linearGradient id="g" x1="515.47" y1="512.9" x2="496.71" y2="718.09" xlink:href="#b"/>
  </defs>
  <g>
    <path d="M833.89,40.45c-210.31-99.64-466.06-8.44-566.85,199.23-109.16,218.47-9.42,489.65,216.54,584.95,195.9,87.09,441.17,4.03,543.38-185.34,122.18-211.92,31.22-497.45-192.94-598.78l-.13-.06ZM999.63,635.35c-34.86,58.37-83.98,108.22-143.09,141.93-65.31,39.63-142.56,57.9-218.74,55.85-259.28-10.14-442.86-257.73-375.14-508.17,22.62-84.76,73.63-161.8,143.68-215.41,358.93-262.94,810.35,137.57,593.36,525.67l-.07.12Z" fill="url(#b)"/>
    <path d="M309.2,498.62c6.96,12.71,15.68,24.22,26.03,34.12,8.71,8.37,18.47,15.59,27.93,22.98,95.43,73.45,230.68,66.38,339.33,29.1,12.31-4.07,27.32-9.3,37.27-16.78,7.49-5.28,10.52-13.76,3.01-20.3-4.2-3.45-9.69-4.15-15.13-3.91-7.66.28-15.09,2.5-22.57,3.97-10.55,1.77-21.92,4.15-32.51,6.7-11.34,2.4-24.18,4.41-35.34,6.5-6.27,1.2-10.6,1.67-16.74,2.21-13.41,1.03-27.6,3.13-40.42,3.31-13.35-.13-27.83.42-41.36-.53-11.35-.8-22.78-2.14-34.12-3.28-6.85-.64-13.12-1.44-19.87-2.81-39.56-7.29-79.04-19.93-114.89-37.66-13.89-7.07-27.36-15.34-40.63-23.56-4.24-2.62-8.04-5.01-12.41-7.85-10.63-7.34-14.56-6.13-7.64,7.67l.06.12Z" fill="url(#c)"/>
    <path d="M1010.25,369.37c-10.97-17.25-25.99-31.29-41.96-43.88-14.54-11.74-29.61-22.15-45.86-31.16-91.96-52.25-202.04-37.5-296.98-1.67-15.93,5.79-30.86,13.87-45.47,22.39-5.07,3.1-11.11,7.75-11.56,13.84-.4,4.73,2.97,8.91,7.2,10.68,12.79,5.05,28.9-.29,41.82-2.49,18.16-3.17,28.55-5.53,52.61-10.44,9.43-1.95,20.89-4.28,29.41-6.04,5.15-1.01,10.04-2.22,14.69-2.74,60.55-7.1,119.06-6.55,177.63,11.56,30.27,10.82,58.71,26.17,85.48,43.94,12.89,8.54,26.35,17.26,38.3,27.03,2.13,1.9,5.39,4.44,6.8,4.4,5.46-.16-1.82-17.24-3.06-19.77-2.54-5.47-5.69-10.62-8.96-15.53l-.08-.12Z" fill="url(#d)"/>
    <path d="M737.04,381.84c-71.29-8.58-155,12.69-219.32-27.59-26.2-17.49-43.05-46.33-38.93-78.25,12.11-75.61,115.62-122.38,178.2-145.2,55.58-20.31,114.34-31.16,173.54-32.71,6.71-.13,16.33-.28,22.7-.44.91-.03,1.75-.07,2.51-.12,3.02-.2,4.49-.63,4.19-1.38-.28-.8-2.56-1.99-5.59-3.31-5.24-2.21-10.58-4.13-16.04-5.95-74.47-22.9-148.46-39.19-225.7-30.61-126.58,15.17-271.45,108.71-275.23,247.39-1.27,36.85,7.55,73.43,26.53,105.14,46.08,79.03,140.06,110.04,227.58,111.25,15.34,1.19,30.88,1.1,46.29,1.04,18.34,0,36.3,0,55.23,0,9.8-.1,16.87.09,26.22,1.45,29.6,3.57,59.46,10.44,82.86,30.32,12.67,10.14,20.69,25.37,23.18,41.29,2.77,16.61-3.66,32.39-13.31,46.07-5.75,8.25-12.21,16.75-19.44,23.97-11.19,11.27-24.26,20.26-37.54,28.89-10.46,7.28-21.88,12.69-33.44,18.23-14.33,6.82-28.68,12.53-43.41,18.23-9.83,3.49-19.89,6.41-29.77,9.7-37.33,11.35-77.43,20.02-116.71,23.9-13.55,1.47-27.13,1.24-40.6,2.29-12.64,2.06,9.89,9.46,12.72,10.81,101.01,40.99,208.37,41.31,308.6-6.9,61.83-29.69,119.47-80.29,140.75-146.84,8.1-26.61,6.96-57.01-.48-84.82-4.32-16.01-10.66-29.98-19.51-43.51-42.91-67.96-116.88-104.12-195.97-112.33l-.14-.02Z" fill="url(#e)"/>
    <path d="M1040.28,354.18c-2.33-24.73-8.76-49.16-17.84-72.28-2.73-6.55-5.6-12.97-8.56-19.4-7.25-15.7-17.47-30.26-29.25-42.81-48.88-51.96-106.5-69.89-176.84-69.09-96.04,2.08-194.54,46.47-267.96,107.2-8.11,7.1-16.93,15.31-23.13,23.78-6.98,9.72-14.39,22.82-10.37,34.87.66,1.76,1.75,3.32,3.21,4.5,5.34,4.3,14.56,3.48,21.1,1.07,9.11-3.3,17.39-8.48,25.98-12.88,18.12-9.61,35.84-20.26,53.88-29.97,139.1-75.23,339.36-87.79,420.44,73.81,5.55,9.77,11.93,25.43,9.34,1.35v-.14ZM998.93,250.24s0-.6,0-.88c.03-.54.02.74,0,.87h0Z" fill="url(#f)"/>
    <path d="M507.04,718.15c72.97-.98,143.03-20.29,208.5-51.44,6.13-3.03,12-6.23,17.74-9.78,8.56-5.24,17.05-11.56,21.78-20.66,4.32-7.7,5.59-16.71,4.03-25.42-.81-5.07-2.37-10.04-4.3-14.76-1.75-4.46-4.84-9.51-10.09-9.71-5.07-.25-11.18,3.03-16.15,5.16-8.45,3.99-16.74,7.71-25.22,11.32-70.03,31.8-147.02,52.8-224.51,46.05-9.56-.84-19-3-28.35-4.88-11.68-2.31-23.26-4.46-34.87-8.38-11.32-3.8-22.53-9.5-32.97-14.99-6.9-3.87-13.94-8.66-20.7-12.89-6.08-3.83-11.55-7.73-17.25-11.98-6.72-4.95-12.94-9.63-18.76-15.88-7.41-8-14.86-15.38-21.54-24.1-4.57-5.65-8.93-12.52-13.15-18.66-2.77-4.02-4.31-6.32-6.98-11.56-4.38-8.39-10.63-20.52-15.08-29.06-5.07-10.66-7.09-8.81-4.76,2.39,3.66,15.51,8.32,30.88,13.61,45.89,4.73,13.59,9.95,27.05,17.05,39.53,6.36,11.32,13.94,22.03,21.36,32.68,14.23,20.79,31.52,39.6,51.23,55.38,14.36,11.63,30.49,20.47,47.41,28.08,28.74,13.13,60.08,18.39,91.85,17.68h.14Z" fill="url(#g)"/>
  </g>
  <image width="3549" height="693" transform="translate(0 319.26) scale(.36)" xlink:href="Logo Saborty_BIMI-1.png"/>
</svg>