<?xml version="1.0"?><svg version="1.2" baseProfile="tiny-ps" viewBox="0 0 300 300" xmlns="http://www.w3.org/2000/svg" xmlns:xlink="http://www.w3.org/1999/xlink"><title>saborty</title><g><g fill="#fbfcf5" transform="matrix(.1 0 0 -.1 0 300)"><path d="M0 1510V20h3000v2980H0V1510z"/></g><g fill="#e2df19" transform="matrix(.1 0 0 -.1 0 300)"><path d="M1365 2583c-70-10-216-53-293-87l-84-36-76-52-77-53-90-91-90-92-59-104-58-103-29-88c-16-49-29-95-29-103v-14H235l-40-19-41-18-27-32c-15-18-27-38-27-45 0-8-9-34-20-59l-21-46 6-24 6-24-25-17-26-16v-20c0-10-5-22-10-25l-10-6v-109l23-15 24-15 217 1 218 1 7-9c4-4 13-28 20-53 21-73 67-167 125-254l54-81 89-86c82-79 189-159 213-159 6 0 10-4 10-8s17-14 38-21c20-8 60-24 87-37 65-29 165-53 274-65l86-9 70 6c84 7 214 31 273 51 74 25 194 83 267 130l69 45 84 85 84 85 43 67c50 77 106 195 126 263l13 47 81 3 80 3 22 45c12 25 29 63 39 85l16 40 125 126 125 126-4 29-3 29-66 3-66 3-48-40c-27-22-53-47-57-56-15-26-25-17-32 27-4 23-12 48-18 55l-10 13h-174l-18 73-18 72-50 101-49 101-57 74c-56 74-106 124-197 199l-50 41-110 54c-112 56-177 77-300 101l-70 13-105-1c-58-1-118-3-135-5zm385-99c151-45 315-135 410-227 59-56 132-140 143-164 5-13 13-23 17-23s12-12 19-27l13-28-59 56c-65 62-123 99-198 126l-50 17-150 1h-150l-50-14c-87-24-133-40-200-70-149-68-292-171-338-244l-18-28 3-27 3-27 37-3 37-3 83 47c170 97 249 129 401 165l87 21 118-5 117-5 53-15c122-37 222-104 282-192 17-24 30-46 30-49s-17-6-37-6h-38l-30 28c-76 70-204 133-315 156l-75 16h-72c-67 0-99-4-228-32-105-22-267-89-294-122l-13-16 6-15 5-15h-156l-23 25-24 26-4 63-4 63 17 34c10 19 31 51 48 72l30 38 73 50c114 76 240 130 409 173l100 26 118 6c65 4 120 10 122 15l5 7-78 25c-72 23-152 41-296 67-106 18-198 12-371-26-45-10-191-79-254-121-31-20-83-65-116-98l-61-61-41-80-41-79-12-70-12-71 4-42 4-42h-29c-44 0-60-14-113-90l-49-71-3 10c-2 5 1 19 7 30 13 24 14 78 2 85l-9 6 28 91c51 164 114 270 233 396l71 74 81 55c129 85 280 145 415 165l55 8 120-5 119-4 86-26zm193-674c40-6 97-18 127-28l55-17-162-5-162-5-11-11-12-12-29 15-30 15-147-4-147-4-31-19-32-19-17 14-17 14 68 14c38 7 92 17 119 23 178 37 309 46 428 29zm504-42-5-13-1 19c-1 11 2 17 5 13 3-3 4-12 1-19zm-217-183c0-2-5-17-11-32s-15-38-20-50c-18-46-33-73-40-73-3 0-14 11-23 25l-16 24 24 56 25 55h30c17 0 31-2 31-5zm250-28c0-143-40-306-110-452-117-242-347-431-615-504-175-48-426-39-570 19-124 51-182 80-196 97-6 7-16 13-21 13-13 0-154 118-188 156-89 101-160 223-201 347-33 101-32 97-19 97 5 0 13-12 16-27 11-46 60-148 94-198 18-26 60-75 94-109l62-62 66-33c36-18 92-39 125-46l58-14 70-1h70l105 19c157 29 290 76 382 135l48 30 10 30 10 30-6 32c-3 19-12 38-20 45l-14 11-26-6c-14-4-58-21-97-39-73-33-161-63-274-91l-63-16h-212l-62 15c-33 9-74 21-91 27-42 16-164 97-198 131-35 36-97 123-97 137v10h39l3-32 3-33 52-5 52-5 23-21c40-35 101-72 148-89 25-9 54-21 65-25 41-17 123-32 205-37l85-5 105 16c58 9 119 21 135 26 17 6 59 19 94 30 36 11 76 27 89 36l24 16-4 28-4 28 35 6 35 5 32-20c18-11 44-33 58-50l25-30 7-35 6-35-18-42-19-42-57-56-56-56-84-41c-150-75-339-127-509-139l-90-6 13-14c8-7 54-27 104-44l89-31 107-10 107-10 98 10 98 11 65 21c87 29 193 83 258 132 50 37 63 50 127 123 14 17 40 59 58 95l32 65v195h16c28 0 53 40 94 150 10 25 23 59 30 75 6 17 18 45 25 63l12 32h58v-33zm79-124c-14-38-17-26-11 52l6 70 7-49 8-48-10-25zm-1324-143 18-20h284l31 11 31 11 22-16 22-15-24-5c-13-2-53-10-89-18l-65-13h-350l-60 14c-33 7-67 16-75 19l-15 6 96 6 95 5 25 17c31 22 33 22 54-2z"/></g><g fill="#c4d64c" transform="matrix(.1 0 0 -.1 0 300)"><path d="M1408 2583c12-2 30-2 40 0l17 5-40-1h-40l23-4zm165 0c9-2 25-2 35 0l17 5h-70l18-5zm-245-10c7-3 16-2 19 1 4 3-2 6-13 5l-19-1 13-5zm340 0c7-3 16-2 19 1 4 3-2 6-13 5l-19-1 13-5zm50-10c7-3 16-2 19 1 4 3-2 6-13 5l-19-1 13-5zm-330-50c6-2 18-2 25 0l12 5h-50l13-5zm200 0c6-2 18-2 25 0l12 5h-50l13-5zm-350-30c7-3 16-2 19 1 4 3-2 6-13 5l-19-1 13-5zm-228-13-15-10h12c6 0 15 5 18 10 8 12 4 12-15 0zm453-17c26-2 68-2 95 0l47 3h-190l48-3zm-85-10c6-2 18-2 25 0l12 5h-50l13-5zm240 0c6-2 18-2 25 0l12 5h-50l13-5zm432-7c0-3 20-19 45-36s45-29 45-26-20 19-45 36-45 29-45 26zm-812-23c6-2 18-2 25 0l12 5h-50l13-5zm560 0c7-3 16-2 19 1 4 3-2 6-13 5l-19-1 13-5zm132 3c0-2 7-7 16-10l15-6-6 10c-6 10-25 14-25 6zm-52-23c7-3 16-2 19 1 4 3-2 6-13 5l-19-1 13-5zm92-43-35-7 32-2 32-1 6 10c3 6 5 9 3 9-2-1-19-5-38-9zm-152-17c6-2 18-2 25 0l12 5h-50l13-5zm-1034-25-19-23 23 19c21 18 27 26 19 26-2 0-12-10-23-22zm115 5-14-18 18 14c9 7 17 15 17 17 0 8-8 3-21-13zm1181 13c0-2 8-10 18-17l17-14-14 18c-13 16-21 21-21 13zm-1111-53-14-18 18 14c9 7 17 15 17 17 0 8-8 3-21-13zm-230-10-14-18 18 14c9 7 17 15 17 17 0 8-8 3-21-13zm71-28c-24-25-42-45-39-45s25 20 49 45 42 45 39 45-25-20-49-45zm109-2-14-18 18 14c9 7 17 15 17 17 0 8-8 3-21-13zm-214-4c-4-6-5-12-2-15 2-3 7 2 10 11 7 17 1 20-8 4zm1575 7c0-2 8-10 18-17l17-14-14 18c-13 16-21 21-21 13zm-90-10c0-2 8-10 18-17l17-14-14 18c-13 16-21 21-21 13zm-397-13c9-2 23-2 30 0l12 5h-60l18-5zm175 0c6-2 18-2 25 0l12 5h-50l13-5zm-1094-25-19-23 23 19c12 11 22 21 22 23 0 8-8 2-26-19zm-211-10c-15-20-25-38-20-38 3 0 12 11 21 25 17 26 16 35-1 13zm915-15c7-3 16-2 19 1 4 3-2 6-13 5l-19-1 13-5zm-224-106c-92-58-168-123-197-170l-18-28 3-27 3-27 37-3 37-3 83 47c166 94 270 137 396 164l62 13v17h-27c-16 0-95 7-178 15-82 8-151 15-153 15s0 5 3 10c8 13 7 13-51-23zm514-24c12-2 32-2 45 0l22 4h-90l23-4zm157-13c11-5 25-9 30-9l10-1-15 10c-8 5-22 9-30 9h-15l20-9zm326-21 11-22-33 6c-19 3-74 9-124 12l-90 6 62-31c73-37 142-95 183-155 17-24 30-46 30-49s-17-6-38-6h-39l-17 18-16 19-53 1c-28 1-99 6-157 12-262 26-411 39-490 45-47 4-100 11-119 15l-33 9-57-29c-32-15-63-35-70-44l-13-16 6-15 5-15h-153l-25 22c-14 13-20 16-13 8 6-8 12-18 12-23v-10l-87 7c-49 3-124 8-168 12-44 3-90 7-102 10l-22 4-4 48-4 47 1-63 1-62h-28c-44 0-60-14-113-90l-49-71-3 10c-2 5 1 19 7 30 13 24 14 78 2 85l-9 6 24 77c23 74 27 116 6 54l-11-31h-70l-7-35-6-35H235l-40-19-41-18-27-32c-15-18-27-38-27-45 0-8-9-34-20-59l-21-46 6-24 6-24-25-17-26-16v-20c0-10-4-22-10-25l-10-6v-109l23-15 24-15 217 1 218 1 7-9c4-4 13-28 20-53 21-73 67-167 125-254l54-81 89-86c82-79 189-159 213-159 6 0 10-4 10-8s17-14 38-21c20-8 60-24 87-37 65-29 165-53 274-65l86-9 70 6c84 7 214 31 273 51 74 25 194 83 267 130l69 45 84 85 84 85 43 67c50 77 106 195 126 263l13 47 81 3 80 3 22 45c12 25 29 63 39 85l16 40 125 126 125 126-4 29-3 29-66 3-66 3-48-40c-27-22-53-47-57-56-15-26-25-17-32 27-4 23-12 48-18 55l-10 13h-238v25l-9-14-9-13v38l-1 39-21 50c-31 74-64 135-73 135h-8l12-21zm-408-189c40-6 97-18 127-28l55-17-162-5-162-5-11-11-12-12-29 15-30 15-147-4-147-4-31-19-32-19-17 14-17 14 68 14c38 7 92 17 119 23 178 37 309 46 428 29zm211-130c-2-31-56-179-80-215-10-15-28-31-41-36l-23-9v-110h-110v110h-96l-25-52-24-53-57-3-57-3 62 143 62 143 60 30c33 17 87 43 120 58l60 27 75-2 75-3-1-25zm539-36c2-36 8-68 12-72l6-7 68 73 68 72h118l-126-127-127-128-27-72-28-73h-54c-29 0-53 2-53 5 0 2 13 37 29 77l29 73-9 58c-5 31-13 82-17 112-5 30-11 58-15 61-3 4-14-10-23-29l-17-36-64-3-65-3-63-155-63-155-56-3-56-3 21 52c11 29 40 99 64 156l44 104-12 4c-7 3-35 6-63 7l-52 3 15 38 15 37h495l6-66zm-463-59c0-2-5-17-11-32s-15-38-20-50c-18-46-33-73-40-73-3 0-14 11-23 25l-16 24 24 56 25 55h30c17 0 31-2 31-5zm250-28c0-143-40-306-110-452-117-242-347-431-615-504-175-48-426-39-570 19-124 51-182 80-196 97-6 7-16 13-21 13-13 0-154 118-188 156-90 101-160 223-201 348l-30 89 12 8c6 3 29 7 50 7l38 1 3-32 3-32 52-5 52-5 23-21c40-35 101-72 148-89 25-9 54-21 65-25 41-17 123-32 205-37l85-5 105 16c58 9 116 20 130 25s57 18 96 30 78 27 88 34l17 13-28 1c-15 1-66 5-113 9s-175 7-285 8l-200 2-50 13c-27 8-57 16-65 19l-15 6 95 6 96 5 28 18 28 19 22-21 22-21h281l31 11 31 10 23-14 23-15 50 4c28 2 61 6 76 9l25 6 42-30c50-37 71-67 78-113l6-35-22-43-23-44-53-52-54-52-83-41c-149-74-338-126-508-138l-90-6 13-14c8-7 54-27 104-44l89-31 107-10 107-10 98 10 98 11 65 21c87 29 193 83 258 132 50 37 63 50 127 123 14 17 40 59 58 95l32 65v195h16c28 0 53 40 94 150 10 25 23 59 30 75 6 17 18 45 25 63l12 32h58v-33zm-770 8c0-4-6-18-14-33-7-15-24-56-36-92-26-75-43-98-87-116l-32-14h-130c-71 0-136 3-145 6l-16 6v33l53 23 52 22h181l24 56 25 57 55 27c58 29 70 34 70 25zm849-132c-14-38-17-26-11 52l6 70 7-49 8-48-10-25zm-678 184c-9-12-41-91-41-103 0-2 33-4 74-4h73l22 52c12 28 20 52 19 53-2 1-33 5-69 9l-66 6-12-13zM610 1306c0-2 8-10 18-17l17-14-14 18c-13 16-21 21-21 13zm40-60c0-2 8-10 18-17l17-14-14 18c-13 16-21 21-21 13zm-24-66c29-59 74-119 138-184l62-62 66-33c36-18 92-39 125-46l58-14 70-1h70l105 19c157 29 290 76 382 135l48 31 11 32c6 18 8 39 6 46l-5 12-1-15-1-16-67 3c-38 2-79 6-92 9l-25 5 15 11 14 10-20-7c-81-30-191-64-250-78l-70-17h-207l-62 15c-33 9-74 21-91 27-43 16-166 97-193 128l-23 25 7-17 6-18h-65l-14 18-14 17 17-35zm1452 823c6-2 18-2 25 0l12 5h-50l13-5zm-330-50c12-2 30-2 40 0l17 5-40-1h-40l23-4zm120 0c12-2 30-2 40 0l17 5-40-1h-40l23-4zm-1342-18c-9-26-7-32 5-12 6 10 9 21 6 23-2 3-7-2-11-11zm215-11 1-19 5 13c3 7 2 16-1 19-3 4-6-2-5-13zm882 9c9-2 23-2 30 0l12 5h-60l18-5zm365 0c6-2 18-2 25 0l12 5h-50l13-5zm-1393-14c-4-6-5-12-2-15 2-3 7 2 10 11 7 17 1 20-8 4zm487-29v-35l5 18c2 9 2 25 0 35l-5 17v-35zm456 23c7-3 16-2 19 1 4 3-2 6-13 5l-19-1 13-5z"/></g><g fill="#94c23f" transform="matrix(.1 0 0 -.1 0 300)"><path d="M1255 1977c-58-42-77-62-96-100l-20-38 6-20 6-19h64l80 47c44 25 117 65 162 88l83 42-98 7c-53 4-110 9-127 11l-30 5-30-23zm1055-83c0-3 21-32 46-65l46-60-7-7-7-7-285 3-285 3-22-15-23-15-12 12-12 12-147 3-147 3-47-24-47-24-21 21-21 21-162 3-163 3-22-18-22-18-40-95c-43-104-45-103-29 17l12 82-13 16-12 15h-87c-47 0-96-3-109-6l-22-6-56-79c-30-44-57-79-60-79-2 0 3 16 11 36s15 49 15 64v27l-21 19-21 19-128 3-127 4-42-12-41-11-35-31-35-30-7-27c-3-14-15-45-25-69l-19-43 7-21 6-21-22-17-23-17-13-39c-8-21-14-58-14-81v-43l24-16 25-16 153 2c84 1 185 1 223 1l71-1 13-47c20-70 76-187 128-267l44-69 83-83 83-83 84-54c46-29 122-70 169-90l85-37 94-20 95-20h259l36 9c20 5 61 15 91 22 55 12 65 15 170 60 205 87 385 256 495 463 39 75 75 169 75 199v22l74-3 73-4 19 10 19 10 30 78 30 78 127 130 128 131v45h-156l-49-50c-27-27-52-50-56-50s-11 21-15 48l-9 47-105 6c-58 4-119 7-136 8l-30 1-14 53c-7 28-18 60-24 70l-11 17h-42c-24 0-43-3-43-6zm383-248c4-38 10-72 13-75 2-3 35 27 73 67l68 72h118l-126-127-127-128-27-72-28-73h-119l9 13c6 6 21 41 35 77l26 65-10 55c-5 30-13 81-18 114-5 32-11 60-14 63s-13-13-22-36l-16-41h-129l-25-55c-13-31-24-60-24-65 0-6-9-29-19-53-11-23-28-63-40-89l-20-48h-111l21 53c11 28 38 94 60 146 21 52 39 98 39 103v8h-121l7 23c3 12 13 34 21 50l14 27 242-2 242-3 8-69zm-533 46c0-23-44-145-73-202l-23-45-27-13-27-13v-109h-110v110h-98l-22-55-22-55h-119l4 8c3 4 33 75 67 157 34 83 71 169 81 193l19 42h350v-18zm-410-17c0-13-4-25-31-90-4-11-24-63-45-115l-37-95-29-30-28-30-154-3-153-3-16 15-16 16 8 28c5 15 17 44 27 66l19 38 40 23c23 12 51 25 63 29l22 7-25-66-24-66 81 3 80 3 44 99c24 54 44 106 44 115v16l58 27c68 31 72 32 72 13zm480-94c0-8-41-109-81-199l-14-32-13 5c-8 3-27 5-43 5h-29v31l35 35c19 19 35 41 35 49 0 9 4 23 9 33 5 9 15 32 21 50l12 32h68v-9zm325-10c3-10 6-45 7-77l2-59-33-68-33-68-21 3-22 3-17-55c-47-145-133-286-244-397l-72-72-73-47c-41-26-106-62-144-81l-71-33-104-26-105-27h-120l-120-1-55 13c-30 8-93 25-139 40l-85 26-74 42c-85 48-168 110-224 166-65 66-156 192-187 262-7 17-19 41-26 55s-21 51-30 83l-17 58 6 15 5 14h90l3-32 3-33 239-3 239-2 39 20 39 20 26-20 26-20h274l32 11 33 11 11-11 11-11h131l14 9 15 10 30-16c41-20 75-52 92-85l14-27v-89l-37-49c-45-58-46-60-108-105-82-59-227-117-375-151-137-31-174-37-236-37h-64v-10c0-14 62-38 167-66l93-23 87-7 88-6 80 11c183 27 347 101 469 210 37 33 97 114 127 171l24 45v214l24 3 24 3 18 32c10 17 41 88 69 157l52 126h127l6-19zm-1333-177-18-49-34-17-35-18-105 1-105 1 25 8c29 9 117 48 215 95 38 19 71 33 72 31 1-1-5-24-15-52zm-999-1c-13-2-33-2-45 0l-23 4h90l-22-4zm-196-55-5-13v50l5-12c2-7 2-19 0-25zm1835 230-20-53 61-3c33-2 66-1 73 2 10 4 54 87 54 102 0 2-33 4-74 4h-75l-19-52zM821 1222c77-57 164-92 291-116l88-17 67 6c125 10 272 38 333 63l25 11-15 1c-8 0-60 5-115 10-210 20-670 60-684 60h-14l24-18zm-113-159c60-85 186-173 286-199l51-14h213l54 11c112 22 216 54 298 91l85 39-15 9c-8 4-82 13-165 19l-150 12-105-11-105-10-60 6c-77 7-174 30-214 50l-32 16-81 6-82 5 22-30zm613 751-21-15v-39h50c47 0 97 9 185 33l40 11-60 7c-33 3-85 9-116 12l-57 5-21-14z"/></g><g fill="#6bad4b" transform="matrix(.1 0 0 -.1 0 300)"><path d="m1151 1857-13-16 7-21 6-20h64l45 30 45 30h-26c-14 0-46 3-70 6l-45 6-13-15zm-945-112c-21-7-51-26-67-41l-30-28-6-26c-4-14-15-44-25-68l-19-43 7-21 6-21-22-17-23-17-13-39c-8-21-14-58-14-81v-43l23-15 23-15 232 1h232l26 35 26 34h87l3-32 3-33 238-3 237-2 40 20 40 20 29-21 28-21 150 4 150 3 15 13 15 12 13-15 12-15h57c31 0 65 3 77 6l21 6 24 51 24 52h40v-45c0-25 4-51 8-58l9-13 69 2 69 2 10 12c6 7 13 36 17 64l6 52 24 19 24 18 31 76 30 76h68v-10c0-9-9-34-36-97-8-17-14-34-14-38s-14-36-30-73l-31-65 5-14 5-13h160l16 33c9 17 34 75 55 127s44 107 50 122l12 26 64 4 64 3 6-18c3-10 6-48 7-85l1-67-14-25c-17-30-40-90-40-107v-13h160l14 23c8 12 27 52 41 88l27 66 124 123 124 123v47h-154l-57-56-56-56-7 44c-4 23-10 49-15 56l-8 13-254-1c-140-1-263-2-274-2s-93 3-181 7l-161 8-29-15-30-14-29 12-30 13-131 1h-131l-46-23-46-24-21 21-21 21-159 3-159 3-20-10-20-11-17-38c-9-20-20-46-24-57s-18-42-30-70l-21-50 5 70c3 39 8 84 11 101l7 31-17 16-16 17h-82c-45 0-92-3-105-6l-22-6-56-79c-30-44-57-79-60-79-2 0 3 18 12 39l15 39-3 28-3 27-35 18-35 19H365l-120-1-39-14zm309-39 19-13-18-57-18-56H372l5 20 5 20H240v-28l28-10c15-6 54-19 87-28s68-22 77-28l18-11v-27c0-14-9-48-20-74s-19-48-17-50 59 77 128 176l124 179 99 1h98l-6-15c-3-8-10-63-16-121s-15-129-20-156c-6-28-10-62-10-76v-26l9 9c5 6 31 61 56 124 26 63 51 121 55 130 5 9 18 42 30 74l22 57h309l21-11 20-11-6-33c-4-19-13-47-21-62s-15-33-15-39-6-17-14-23l-13-11-5-43-5-42-24-50-24-49-34-23-34-23H678l6 35 7 35H545l-23-35-22-35H380v9c0 6 5 13 10 16 6 3 10 10 10 15v9l-36-24-37-25H57l-19 17c-22 20-23 35-2 90l17 43h127l-10-25-10-26 73 3 72 3v39l-75 22c-41 12-88 27-104 33l-29 11 6 38c2 21 16 63 31 94l26 55 23 11 22 11h146l145 1 19-14zm1229-2c9-8 16-17 16-20 0-9-32-92-91-234l-44-104-40-23-40-23h-261l-23 16-23 17 6 31c9 44 105 275 129 309 11 16 29 32 41 37l21 9h147l147 1 15-16zm400 10c9-3 16-12 16-20 0-21 18-17 25 6l6 20h496l7-37c3-21 6-56 6-78v-40l78 78 77 77h58c31 0 57-1 57-3s-56-59-124-126l-123-123-28-72c-15-39-32-77-37-83l-10-13h-48c-25 0-49 3-52 6-4 3 7 37 23 76l29 71-1 31c0 17-8 74-18 126l-17 95-17-43-17-42h-127l-16-37c-9-21-38-92-65-158l-49-120-56-3-57-3v13c0 7 27 78 60 156 33 79 60 146 60 148s-27 4-60 4h-60v21l-10-6c-5-3-10-13-10-21s-18-53-40-100l-41-84h-28l-11-19-10-20v-92l-57 3-58 3 3 58 4 57h-97l-23-60-24-60h-119l7 23c8 28 143 356 155 380l10 17h159c87 0 165-3 174-6zM499 1533c-7-10-15-20-16-22-2-2-3 5-3 17v22h32l-13-17zm556 67c-8-16-15-31-15-35 0-3 28-5 63-5h64l12 24 13 24-6 11-7 11h-108l-16-30zm-382-48c-24-34-43-67-43-73v-10l38 3 37 3 8 60c4 33 6 65 5 70-2 6-22-18-45-53zm324-99c-2-10-8-26-12-35l-7-18h132l10 26c6 14 10 30 10 35v9h-128l-5-17zm426 65c-23-56-40-105-37-110l5-8h126l16 18c10 10 17 26 17 35s4 18 9 21 12 18 16 33c3 15 15 45 26 67 10 22 19 41 19 43s-35 3-78 3h-78l-41-102zm445 59c-10-23-18-46-18-50v-7h137l17 43c9 23 16 46 16 50v7h-135l-17-43zm-912-426c9-8 54-21 137-40l47-11 93 1c50 0 112 4 137 8l45 7-80 7c-181 15-312 27-349 31l-38 4 8-7zM854 932c9-15 98-55 159-72l48-13 117 6c64 3 144 12 176 19l59 13-229 21c-126 12-253 25-283 29l-54 8 7-11zM745 830c59-62 164-151 221-185 70-42 196-94 284-116l75-20 131-6 130-6 109 23 109 22 73 29c69 27 182 85 193 99 3 4 20 15 38 25l32 19-3 11-4 10-30 3-30 3-54-32c-117-69-192-97-344-129l-90-20h-171l-92 20c-50 11-113 27-139 36-113 38-267 130-353 211l-35 33h-20c-11 0-31 3-45 6l-25 7 40-43zm945 33c-8-3-37-16-65-28-133-60-322-102-482-107-65-2-59-9 47-50 58-23 244-58 308-58 112 0 285 43 397 98 55 27 185 115 185 125 0 1-22 0-49-1-42-3-182 8-291 23-19 2-42 2-50-2z"/></g><g fill="#215b5a" transform="matrix(.1 0 0 -.1 0 300)"><path d="M191 1739c-14-5-36-23-50-39l-26-28-24-62-23-61 4-31 5-31-17-4c-18-5-28-21-50-79l-11-31 3-39 3-39 35-12 35-12 215 2 215 2 35 38 35 37 37-6 37-6 3-27 3-26 244-3 244-2 34 20 33 20 20-20 20-20h291l34 14 34 14 12-14 11-14h62c33 0 66 4 72 8 5 4 19 30 30 57l20 50 34 3 33 3-7-50-7-50 15-8 14-8 66 3 66 4v101l35 31 35 31 28 70 28 70 47 3c26 2 47 1 47-1s-27-69-59-148c-33-79-57-147-54-151l4-8h147l20 48c11 26 39 95 63 155l43 107h122l12 12c7 7 12 9 12 6 0-4 5-40 10-82l11-75-31-76c-16-42-30-81-30-86v-9h150l18 38c11 20 25 55 32 77l13 40 134 137 135 136-6 11-7 11h-141l-63-60-63-61-6 55-7 54-17 7c-9 3-138 6-287 5-148-1-341 1-428 5l-158 8-23-12-23-13-21 11-21 11h-292l-38-18-38-19-23 19-22 18h-167l-166-1-15-12-16-12-44-107c-24-60-45-106-48-103-3 2 1 46 8 97s11 102 9 113l-4 20-104 3-104 3-19-18c-11-10-43-51-71-91-27-40-52-71-54-69s6 25 17 51 20 56 20 66v19l-26 20-27 21-146-1H215l-24-10zm304-19c14-5 28-17 32-26l6-17-18-53-18-54H370l6 25 6 26-67-3-68-3-4-12-4-11 18-5c10-3 53-16 97-29l79-23 14-21 14-21-12-29c-6-16-15-42-20-58l-9-30 9 10c5 5 48 68 96 139 49 72 101 147 118 168l29 38 92-3 91-3-1-25c-1-14-7-72-13-130s-14-132-18-165l-5-60 9 10c6 6 20 37 33 70 55 145 103 262 117 284l15 23 160-3 160-4 13-18 13-19-19-56c-11-30-28-71-39-90-11-18-18-37-15-42 6-10-40-137-57-157-6-8-27-21-46-29l-34-14H680v70H555l-28-35-28-35H369l7 12 7 11-24-8c-13-5-85-10-159-12l-134-4-23 12-23 12v27c0 14 9 45 20 68l20 42h122l-7-30-7-30h118l12 12c21 21 14 26-60 48-109 33-128 41-138 61l-10 18 21 58c12 32 30 70 40 84l18 26 33 10 33 11 117 1 117 1 26-10zm1250-10 17-14-7-34c-3-19-10-42-15-51-4-9-29-68-55-132l-47-117-21-20c-12-12-35-25-50-31l-28-11h-265l-19 13-18 14 7 43c4 24 10 49 15 55 4 5 29 65 55 131l46 121 18 15c9 9 31 20 47 27l30 11 137-3 137-3 16-14zm417-6 18-17 6 17 6 16h496l6-22c3-13 6-39 6-58s4-40 8-47l8-12 67 69 68 70h131l-128-130-129-129-34-81-33-80h-59c-32 0-59 3-59 7 0 3 14 42 31 85l32 79-17 97c-23 125-22 123-37 85l-13-33h-133l-63-160-63-160h-64c-35 0-63 2-63 4s29 74 64 160l65 156h-134l-24-67c-27-78-53-119-81-128l-19-6-3-57-3-57-62-3-63-3v111h-90v-10c0-6-9-30-21-55l-21-45h-118v13c0 6 37 101 81 210l82 197h340l19-16zM504 1534l-17-25-8 13c-13 20-11 26 14 31 12 2 23 5 25 6 1 0-5-11-14-25zm556 67c-5-11-10-24-10-30v-11h109l11 19c5 11 10 24 10 30v11h-109l-11-19zm-356-3c-4-7-23-37-41-65l-34-53h69l11 62c11 63 9 80-5 56zm289-168-11-30h124l11 30 11 30h-124l-11-30zm458 148c-27-60-61-149-61-159v-9h140l9 23c5 12 23 57 40 99s31 79 31 82-32 6-70 6h-70l-19-42zm432 25c-3-10-12-33-19-50l-13-33h130l19 46c11 25 20 48 20 50s-29 4-65 4h-66l-6-17zm101-30c-4-16-9-30-11-33-4-4-85-1-90 4-2 1 3 14 10 29l12 27h85l-6-27z"/></g></g></svg>