<?xml version="1.0" encoding="UTF-8"?>
<svg id="uuid-3e415805-d78d-4ee8-971a-7333d048e21b" data-name="Layer 1" xmlns="http://www.w3.org/2000/svg" width="452mm" height="452mm" xmlns:xlink="http://www.w3.org/1999/xlink" viewBox="0 0 1281.26 1281.26">
  <defs>
    <linearGradient id="uuid-52171db6-a667-4566-a195-54a0d3bc6f6c" x1="681.14" y1="195.33" x2="599.85" y2="1084.36" gradientUnits="userSpaceOnUse">
      <stop offset="0" stop-color="#e4e405"/>
      <stop offset=".31" stop-color="#dbde00"/>
      <stop offset="1" stop-color="#63ad00"/>
    </linearGradient>
    <linearGradient id="uuid-14a2c814-3afb-4538-9ed3-cec103b665e9" x1="515.62" y1="720.03" x2="505.6" y2="829.62" xlink:href="#uuid-52171db6-a667-4566-a195-54a0d3bc6f6c"/>
    <linearGradient id="uuid-aab6444e-d95c-4aba-8b97-706dc5197304" x1="795.35" y1="464.12" x2="783.58" y2="592.91" xlink:href="#uuid-52171db6-a667-4566-a195-54a0d3bc6f6c"/>
    <linearGradient id="uuid-fa55f4a7-1b76-4975-9c69-834eb7b006bf" x1="673.36" y1="250.61" x2="602.18" y2="1029.09" xlink:href="#uuid-52171db6-a667-4566-a195-54a0d3bc6f6c"/>
    <linearGradient id="uuid-5563d406-9382-4244-a32a-0ec1bbfba7e8" x1="779.89" y1="345.78" x2="760.99" y2="552.43" xlink:href="#uuid-52171db6-a667-4566-a195-54a0d3bc6f6c"/>
    <linearGradient id="uuid-e3dd91b8-c5e6-4d66-89c0-2760d7c69377" x1="503.3" y1="726.35" x2="483.62" y2="941.53" xlink:href="#uuid-52171db6-a667-4566-a195-54a0d3bc6f6c"/>
  </defs>
  <path d="M823.07,233.58c-211.37-104.11-468.39-8.82-569.69,208.18-109.71,228.28-9.47,511.63,217.63,611.21,196.88,91,443.38,4.21,546.11-193.66,122.79-221.44,31.38-519.78-193.91-625.66l-.13-.06ZM989.64,855.19c-35.04,60.99-84.4,113.08-143.81,148.3-65.64,41.41-143.28,60.5-219.83,58.36-260.58-10.6-445.08-269.3-377.02-530.98,22.73-88.56,74-169.06,144.4-225.08C754.11,31.05,1207.79,449.54,989.71,855.06l-.07.13Z" fill="url(#uuid-52171db6-a667-4566-a195-54a0d3bc6f6c)"/>
  <path d="M295.75,712.32c7,13.28,15.75,25.31,26.16,35.65,8.75,8.75,18.56,16.29,28.07,24.01,95.91,76.75,231.84,69.36,341.03,30.4,12.37-4.25,27.46-9.72,37.46-17.54,7.53-5.51,10.57-14.38,3.03-21.21-4.23-3.61-9.74-4.33-15.2-4.09-7.7.29-15.16,2.62-22.68,4.14-10.6,1.85-22.03,4.34-32.67,7-11.4,2.51-24.3,4.61-35.52,6.8-6.31,1.25-10.65,1.74-16.83,2.31-13.48,1.08-27.74,3.27-40.63,3.46-13.41-.14-27.97.44-41.57-.55-11.4-.83-22.89-2.23-34.29-3.43-6.88-.67-13.19-1.51-19.97-2.93-39.76-7.62-79.44-20.82-115.47-39.35-13.96-7.39-27.5-16.02-40.83-24.61-4.26-2.74-8.08-5.24-12.47-8.2-10.68-7.67-14.63-6.4-7.68,8.02l.06.13Z" fill="url(#uuid-14a2c814-3afb-4538-9ed3-cec103b665e9)"/>
  <path d="M1000.31,577.26c-11.03-18.02-26.12-32.69-42.17-45.85-14.61-12.26-29.76-23.14-46.09-32.56-92.42-54.6-203.05-39.19-298.47-1.74-16.01,6.05-31.02,14.49-45.7,23.39-5.09,3.24-11.16,8.09-11.62,14.47-.4,4.94,2.98,9.31,7.23,11.16,12.86,5.28,29.04-.31,42.03-2.6,18.25-3.31,28.7-5.78,52.87-10.91,9.47-2.03,20.99-4.48,29.56-6.31,5.18-1.05,10.09-2.32,14.76-2.86,60.85-7.42,119.66-6.84,178.52,12.08,30.42,11.31,59.01,27.35,85.91,45.91,12.95,8.93,26.49,18.03,38.49,28.24,2.14,1.99,5.42,4.64,6.83,4.6,5.49-.16-1.83-18.01-3.08-20.66-2.55-5.71-5.72-11.09-9.01-16.23l-.08-.12Z" fill="url(#uuid-aab6444e-d95c-4aba-8b97-706dc5197304)"/>
  <path d="M725.74,590.29c-71.64-8.96-155.78,13.26-220.42-28.83-26.33-18.27-43.27-48.41-39.12-81.77,12.18-79.01,116.2-127.87,179.1-151.72,55.86-21.22,114.91-32.56,174.41-34.18,6.74-.14,16.41-.29,22.81-.46.91-.03,1.76-.07,2.52-.13,3.03-.21,4.52-.66,4.21-1.44-.28-.83-2.57-2.08-5.61-3.46-5.27-2.31-10.63-4.32-16.12-6.21-74.84-23.93-149.21-40.95-226.83-31.98-127.21,15.85-272.81,113.6-276.61,258.5-1.28,38.5,7.59,76.73,26.66,109.86,46.31,82.58,140.77,114.98,228.72,116.25,15.41,1.24,31.03,1.15,46.53,1.09,18.43,0,36.48,0,55.51,0,9.85-.11,16.96.09,26.35,1.52,29.75,3.73,59.76,10.91,83.27,31.68,12.73,10.6,20.79,26.51,23.3,43.15,2.79,17.36-3.68,33.84-13.37,48.14-5.77,8.62-12.27,17.51-19.54,25.04-11.24,11.78-24.38,21.17-37.73,30.18-10.51,7.61-21.99,13.26-33.6,19.05-14.41,7.12-28.82,13.09-43.62,19.05-9.88,3.64-19.99,6.7-29.92,10.13-37.51,11.86-77.82,20.91-117.3,24.97-13.62,1.54-27.27,1.3-40.81,2.39-12.7,2.15,9.94,9.88,12.78,11.29,101.52,42.83,209.41,43.16,310.15-7.21,62.14-31.03,120.06-83.9,141.45-153.43,8.14-27.81,6.99-59.57-.48-88.63-4.34-16.73-10.72-31.32-19.61-45.47-43.12-71.01-117.47-108.79-196.95-117.37l-.14-.02Z" fill="url(#uuid-fa55f4a7-1b76-4975-9c69-834eb7b006bf)"/>
  <path d="M1030.49,561.4c-2.34-25.84-8.81-51.37-17.93-75.52-2.75-6.85-5.63-13.55-8.6-20.27-7.28-16.4-17.56-31.62-29.4-44.73-49.12-54.29-107.04-73.02-177.72-72.2-96.52,2.17-195.52,48.55-269.31,112.01-8.15,7.42-17.02,16-23.25,24.85-7.01,10.16-14.46,23.85-10.42,36.43.67,1.84,1.76,3.47,3.23,4.7,5.37,4.5,14.63,3.63,21.21,1.12,9.16-3.45,17.48-8.86,26.11-13.46,18.21-10.04,36.02-21.17,54.15-31.31,139.8-78.61,341.06-91.73,422.55,77.13,5.58,10.21,11.99,26.57,9.39,1.41v-.15ZM988.93,452.79s0-.63,0-.92c.03-.56.02.78,0,.91h0Z" fill="url(#uuid-5563d406-9382-4244-a32a-0ec1bbfba7e8)"/>
  <path d="M494.57,941.7c73.33-1.02,143.75-21.2,209.54-53.75,6.16-3.17,12.06-6.51,17.83-10.22,8.61-5.48,17.14-12.08,21.89-21.59,4.34-8.04,5.62-17.46,4.05-26.56-.81-5.3-2.38-10.49-4.32-15.42-1.76-4.66-4.87-9.94-10.14-10.15-5.1-.26-11.24,3.17-16.23,5.39-8.49,4.17-16.82,8.05-25.35,11.83-70.38,33.23-147.75,55.17-225.63,48.12-9.6-.88-19.09-3.13-28.49-5.1-11.74-2.41-23.38-4.66-35.05-8.76-11.37-3.97-22.64-9.93-33.13-15.66-6.93-4.05-14.01-9.05-20.8-13.47-6.11-4-11.61-8.07-17.34-12.52-6.75-5.17-13-10.06-18.86-16.6-7.45-8.36-14.94-16.07-21.65-25.18-4.6-5.9-8.98-13.09-13.21-19.5-2.78-4.2-4.34-6.6-7.02-12.08-4.4-8.76-10.68-21.44-15.16-30.37-5.09-11.14-7.12-9.2-4.79,2.49,3.68,16.2,8.36,32.26,13.68,47.95,4.75,14.2,10,28.26,17.13,41.31,6.39,11.83,14.01,23.01,21.47,34.15,14.3,21.72,31.68,41.38,51.48,57.87,14.44,12.15,30.64,21.39,47.65,29.34,28.89,13.71,60.38,19.22,92.32,18.47h.14Z" fill="url(#uuid-e3dd91b8-c5e6-4d66-89c0-2760d7c69377)"/>
</svg>