<?xml version="1.0" encoding="UTF-8"?>
<svg id="uuid-aaf34e28-9ce9-48d4-9684-230cc9ab4515" data-name="Layer 1" xmlns="http://www.w3.org/2000/svg" width="452.61mm" height="303.11mm" xmlns:xlink="http://www.w3.org/1999/xlink" viewBox="0 0 1283 859.22">
  <defs>
    <linearGradient id="uuid-f719850a-1a14-4c7e-b8d8-b237e65f8a0f" x1="691.13" y1="3.71" x2="613.31" y2="854.81" gradientUnits="userSpaceOnUse">
      <stop offset="0" stop-color="#e4e405"/>
      <stop offset=".31" stop-color="#dbde00"/>
      <stop offset="1" stop-color="#63ad00"/>
    </linearGradient>
    <linearGradient id="uuid-676fe5ed-0e88-4526-876c-8b460f9c92e4" x1="527.84" y1="506.75" x2="518.32" y2="610.93" xlink:href="#uuid-f719850a-1a14-4c7e-b8d8-b237e65f8a0f"/>
    <linearGradient id="uuid-e877784f-c176-46f7-a15d-ced6a58d541b" x1="805.94" y1="261.02" x2="794.73" y2="383.56" xlink:href="#uuid-f719850a-1a14-4c7e-b8d8-b237e65f8a0f"/>
    <linearGradient id="uuid-6fe68741-669c-4d19-a1b3-2f5993ce5eb4" x1="683.53" y1="56.59" x2="615.39" y2="801.88" xlink:href="#uuid-f719850a-1a14-4c7e-b8d8-b237e65f8a0f"/>
    <linearGradient id="uuid-fa13476e-f9dc-4e90-b132-db7d7c6100b0" x1="790.27" y1="147.59" x2="772.08" y2="346.48" xlink:href="#uuid-f719850a-1a14-4c7e-b8d8-b237e65f8a0f"/>
    <linearGradient id="uuid-6575d807-4f8b-409d-ab2c-553d35e3ff40" x1="515.47" y1="512.9" x2="496.71" y2="718.09" xlink:href="#uuid-f719850a-1a14-4c7e-b8d8-b237e65f8a0f"/>
  </defs>
  <g>
    <path d="M833.89,40.45c-210.31-99.64-466.06-8.44-566.85,199.23-109.16,218.47-9.42,489.65,216.54,584.95,195.9,87.09,441.17,4.03,543.38-185.34,122.18-211.92,31.22-497.45-192.94-598.78l-.13-.06ZM999.63,635.35c-34.86,58.37-83.98,108.22-143.09,141.93-65.31,39.63-142.56,57.9-218.74,55.85-259.28-10.14-442.86-257.73-375.14-508.17,22.62-84.76,73.63-161.8,143.68-215.41,358.93-262.94,810.35,137.57,593.36,525.67l-.07.12Z" fill="url(#uuid-f719850a-1a14-4c7e-b8d8-b237e65f8a0f)"/>
    <path d="M309.2,498.62c6.96,12.71,15.68,24.22,26.03,34.12,8.71,8.37,18.47,15.59,27.93,22.98,95.43,73.45,230.68,66.38,339.33,29.1,12.31-4.07,27.32-9.3,37.27-16.78,7.49-5.28,10.52-13.76,3.01-20.3-4.2-3.45-9.69-4.15-15.13-3.91-7.66.28-15.09,2.5-22.57,3.97-10.55,1.77-21.92,4.15-32.51,6.7-11.34,2.4-24.18,4.41-35.34,6.5-6.27,1.2-10.6,1.67-16.74,2.21-13.41,1.03-27.6,3.13-40.42,3.31-13.35-.13-27.83.42-41.36-.53-11.35-.8-22.78-2.14-34.12-3.28-6.85-.64-13.12-1.44-19.87-2.81-39.56-7.29-79.04-19.93-114.89-37.66-13.89-7.07-27.36-15.34-40.63-23.56-4.24-2.62-8.04-5.01-12.41-7.85-10.63-7.34-14.56-6.13-7.64,7.67l.06.12Z" fill="url(#uuid-676fe5ed-0e88-4526-876c-8b460f9c92e4)"/>
    <path d="M1010.25,369.37c-10.97-17.25-25.99-31.29-41.96-43.88-14.54-11.74-29.61-22.15-45.86-31.16-91.96-52.25-202.04-37.5-296.98-1.67-15.93,5.79-30.86,13.87-45.47,22.39-5.07,3.1-11.11,7.75-11.56,13.84-.4,4.73,2.97,8.91,7.2,10.68,12.79,5.05,28.9-.29,41.82-2.49,18.16-3.17,28.55-5.53,52.61-10.44,9.43-1.95,20.89-4.28,29.41-6.04,5.15-1.01,10.04-2.22,14.69-2.74,60.55-7.1,119.06-6.55,177.63,11.56,30.27,10.82,58.71,26.17,85.48,43.94,12.89,8.54,26.35,17.26,38.3,27.03,2.13,1.9,5.39,4.44,6.8,4.4,5.46-.16-1.82-17.24-3.06-19.77-2.54-5.47-5.69-10.62-8.96-15.53l-.08-.12Z" fill="url(#uuid-e877784f-c176-46f7-a15d-ced6a58d541b)"/>
    <path d="M737.04,381.84c-71.29-8.58-155,12.69-219.32-27.59-26.2-17.49-43.05-46.33-38.93-78.25,12.11-75.61,115.62-122.38,178.2-145.2,55.58-20.31,114.34-31.16,173.54-32.71,6.71-.13,16.33-.28,22.7-.44.91-.03,1.75-.07,2.51-.12,3.02-.2,4.49-.63,4.19-1.38-.28-.8-2.56-1.99-5.59-3.31-5.24-2.21-10.58-4.13-16.04-5.95-74.47-22.9-148.46-39.19-225.7-30.61-126.58,15.17-271.45,108.71-275.23,247.39-1.27,36.85,7.55,73.43,26.53,105.14,46.08,79.03,140.06,110.04,227.58,111.25,15.34,1.19,30.88,1.1,46.29,1.04,18.34,0,36.3,0,55.23,0,9.8-.1,16.87.09,26.22,1.45,29.6,3.57,59.46,10.44,82.86,30.32,12.67,10.14,20.69,25.37,23.18,41.29,2.77,16.61-3.66,32.39-13.31,46.07-5.75,8.25-12.21,16.75-19.44,23.97-11.19,11.27-24.26,20.26-37.54,28.89-10.46,7.28-21.88,12.69-33.44,18.23-14.33,6.82-28.68,12.53-43.41,18.23-9.83,3.49-19.89,6.41-29.77,9.7-37.33,11.35-77.43,20.02-116.71,23.9-13.55,1.47-27.13,1.24-40.6,2.29-12.64,2.06,9.89,9.46,12.72,10.81,101.01,40.99,208.37,41.31,308.6-6.9,61.83-29.69,119.47-80.29,140.75-146.84,8.1-26.61,6.96-57.01-.48-84.82-4.32-16.01-10.66-29.98-19.51-43.51-42.91-67.96-116.88-104.12-195.97-112.33l-.14-.02Z" fill="url(#uuid-6fe68741-669c-4d19-a1b3-2f5993ce5eb4)"/>
    <path d="M1040.28,354.18c-2.33-24.73-8.76-49.16-17.84-72.28-2.73-6.55-5.6-12.97-8.56-19.4-7.25-15.7-17.47-30.26-29.25-42.81-48.88-51.96-106.5-69.89-176.84-69.09-96.04,2.08-194.54,46.47-267.96,107.2-8.11,7.1-16.93,15.31-23.13,23.78-6.98,9.72-14.39,22.82-10.37,34.87.66,1.76,1.75,3.32,3.21,4.5,5.34,4.3,14.56,3.48,21.1,1.07,9.11-3.3,17.39-8.48,25.98-12.88,18.12-9.61,35.84-20.26,53.88-29.97,139.1-75.23,339.36-87.79,420.44,73.81,5.55,9.77,11.93,25.43,9.34,1.35v-.14ZM998.93,250.24s0-.6,0-.88c.03-.54.02.74,0,.87h0Z" fill="url(#uuid-fa13476e-f9dc-4e90-b132-db7d7c6100b0)"/>
    <path d="M507.04,718.15c72.97-.98,143.03-20.29,208.5-51.44,6.13-3.03,12-6.23,17.74-9.78,8.56-5.24,17.05-11.56,21.78-20.66,4.32-7.7,5.59-16.71,4.03-25.42-.81-5.07-2.37-10.04-4.3-14.76-1.75-4.46-4.84-9.51-10.09-9.71-5.07-.25-11.18,3.03-16.15,5.16-8.45,3.99-16.74,7.71-25.22,11.32-70.03,31.8-147.02,52.8-224.51,46.05-9.56-.84-19-3-28.35-4.88-11.68-2.31-23.26-4.46-34.87-8.38-11.32-3.8-22.53-9.5-32.97-14.99-6.9-3.87-13.94-8.66-20.7-12.89-6.08-3.83-11.55-7.73-17.25-11.98-6.72-4.95-12.94-9.63-18.76-15.88-7.41-8-14.86-15.38-21.54-24.1-4.57-5.65-8.93-12.52-13.15-18.66-2.77-4.02-4.31-6.32-6.98-11.56-4.38-8.39-10.63-20.52-15.08-29.06-5.07-10.66-7.09-8.81-4.76,2.39,3.66,15.51,8.32,30.88,13.61,45.89,4.73,13.59,9.95,27.05,17.05,39.53,6.36,11.32,13.94,22.03,21.36,32.68,14.23,20.79,31.52,39.6,51.23,55.38,14.36,11.63,30.49,20.47,47.41,28.08,28.74,13.13,60.08,18.39,91.85,17.68h.14Z" fill="url(#uuid-6575d807-4f8b-409d-ab2c-553d35e3ff40)"/>
  </g>
  <g>
    <path d="M302.86,537.66c-.24-.56-.61-.98-.7-1.64-1.03-7.31,1.6-15.19,1.78-22.54h-38.49c-5.62,7-10.04,15.37-15.57,22.35-4.28,5.4-7.92,7.47-14.78,8.7l-47.33-.03c-3.55-1.28-8.23-1.63-9.61-5.75-8.5,3.11-17.8,5.32-26.9,5.79-27.86,1.43-56.95-1.1-84.94-.02-9.42-1.3-18.8-2.38-26.21-8.84-21.86-19.03.87-52.11,8.25-72.99,4.52-6.36,12.8-8.91,20.31-7.69l-3.67-5.17c-5.26-9.58-2.69-20.63.87-30.3,4.47-12.14,10.25-26.37,15.75-38.05,11.11-23.58,31.15-34.86,56.97-36.23,29.62-1.58,60.62,1.23,90.38,0,7.47,1.16,17.26,1.72,23.7,5.93,24.72,16.14,1.25,53.07-6.04,73.12-2.14,3.28-8.67,7.61-12.62,7.61h-7.77c2.7,2.48,4.08,5.39,5.6,8.67l1.27,6.85,65.27-93.1c3.9-5.88,9.21-7.76,15.86-9.07h71.22c11.2,2.17,13.18,6.19,12.41,17.11-3.04,24.86-6,49.73-8.98,74.59-3.48,2.09-5.99,5.24-6.78,9.29-2.8,14.36-2.84,30.19-5.5,44.68l.35,1.62,27.85-68.75c.04-.25,1.4-3.95.17-3.44-1.47.61-3.94,4.97-5.97,5.41,9.94-24.26,19.38-48.78,30-72.74,3.88-5,8.68-6.45,14.63-7.77,15,0,30.01.04,45.01.01-.2,1.69-5.1,4.59-4.7,5.95.09.3.57.54.9.55,18.37.09,36.75-.12,55.11,0,12.46.08,33.35-1.85,42.65,7.94,5.53,5.82,6.07,13.74,4.86,21.28-.06.38-.48,1.18.19,1.09,4.83-10.54,13.38-19.93,23.84-25.1,5.76-2.85,12.22-3.89,18.45-5.22h109.15c6.41.52,12.87,1.38,18.07,5.41,5.87,4.55,7.59,10.33,7.95,17.52.02.41-.23.99.36.89l7.52-19.02c1.85-3.13,4.19-4.51,7.83-4.82,8.38-.71,17.73.55,26.22.01h41.56c10.72.47,21.77-.35,32.53,0,10.94.71,23.29-1.26,33.97.72,5.88,1.09,11.4,3.39,14.64,8.66,2.51-5.38,3.42-8.83,10.11-9.39s14.8.47,21.88.01h178.01c5.69.47,7.75,3.24,8.75,8.58l5.52,46.29,49.87-51.8c2.06-1.91,4.21-2.84,7.03-3.08,15.67,1.13,33.38-1.47,48.8.02,7.91.76,10.73,8.17,5.79,14.08l-103.35,102.17c-9,20.31-16.36,41.39-25.33,61.7-2.11,4.79-3.05,7.82-9.01,8.33-15.08-.99-31.76,1.27-46.65,0-6.52-.56-9.29-6.03-7.21-11.92l26.03-63.34-11.93-70.23c-2.08,3.8-3.38,11.84-7.52,13.79-1.58.75-3.75,1.06-5.48,1.38l-45.57-.03-1.07.38-51.07,124.79c-1.69,3.75-4.96,5.2-8.91,5.54-14.32,1.22-30.34-.95-44.84,0-6.95-.59-10.63-5.4-8.13-12.12,15.57-36.66,29.76-73.92,45.19-110.63,1.09-2.6,2.72-5.15,3.25-7.94h-40.3c-.09,0-.29-.38-.54-.37l-20.54,50.43c-6.16,13.4-15.46,25.78-30.37,29.77-.11,4.07-.25,8.15-.41,12.22-.38,9.71-.13,20.56-1.13,30.1-.59,5.63-4.04,8.07-9.52,8.54-14.25,1.22-30.22-.94-44.65-.01-7.37-1.32-8.82-4.66-8.67-11.73.18-8.39,1.23-17.75,1.8-26.18.23-3.36.52-6.74.72-10.11h-27.83l-17.44,43.04c-1.77,3.03-3.76,4.04-7.13,4.61l-46.08.36c-2.65-.26-7.53-1.98-8.5-4.69-2.11-5.89,2.06-10.71,3.68-16,.11-.36.61-1.08.12-1.33-8.5,9.74-20.39,17.23-33.07,20.21-2.86.67-7.27,1.59-10.12,1.8-.38-.6-1.37-.36-1.98-.37-32.27-.4-64.6.32-96.86,0-6.7-1.06-14.04-2.74-19.34-7.21-5.98-5.05-6.32-10.52-8.13-17.34-.09-.34-.09-.81-.54-.71-8.35,13.23-22.37,21.27-37.59,24.18-3.21.61-5.76.96-9.04,1.08-36.68,1.41-74.64-.4-111.51-.02-7.96.08-15.66.25-23.66.38-11.54.19-26.95,1.04-38.13,0-4.71-.44-5.92-2.33-9.35-5.03l-4.93,4.31ZM132.64,356.8c-21.21,1.01-34.15,11.26-42.71,30.08-4.54,9.99-9.51,21.98-13.22,32.28-5.25,14.58-7.09,25.98,9.75,32.32,8.5,3.2,17.66,5.17,26.3,7.84,4.12,1.28,8.23,2.8,12.37,4.07,12.35,3.78,24.71,7.58,37.14,11.1l-5.42,14.44h-55.3c1.86-5.91,5.76-12.21,7.4-18.07,1.93-6.89-7.2-4.99-11.37-5.03-12.47-.13-24.95.11-37.42-.02-3.6,0-4.55,4.81-5.75,7.61-4.67,10.87-13.74,29.73-12.39,41.23,2.27,19.34,23.33,18.54,37.86,18.68,25.72.25,51.45-.2,77.18.01,1.86-.29,3.73-.45,5.59-.74,20.16-3.06,34.29-15.16,42.71-33.33,4.96-10.69,12.01-26.9,15.01-38.07,6.75-25.11-11.95-25.53-30.26-31.12-18.89-5.78-37.77-11.62-56.74-17.14l-.31-1,4.64-11.45h55.3l-6.71,16.22c-.54,2.37.42,4.09,2.91,4.36,5.2.58,12.44-.03,17.9,0,9.45.04,18.92-.03,28.38,0l2.29-1.32c3.64-8.62,7.69-17.2,10.81-26.03,7.95-22.52,5.53-35.96-21.04-37.29-30.5-1.53-62.27,1.18-92.9,0l-1.98.37ZM255.52,432.61c-22.52,31.95-45.17,63.84-67.49,95.94-1.14,2.28.02,4.62,2.61,4.79l48.63-.18,1.75-1.14,19.93-29.37h55.66s-3.23,28.32-3.23,28.32c.36,1.52,1.54,2.21,3.04,2.38,7.38.82,18.1.02,25.85,0,6.18-.02,16.19.84,21.84-.02,2.74-.42,2.7-2.87,2.91-2.87.47,1.74,1.78,2.77,3.61,2.89,17.65.01,35.3-.02,52.95,0,21.68.02,45.66,1.26,67.06.02,5.66-.33,12.94-1.99,18.24-3.99,12.3-4.62,22.83-14.42,28.5-26.22,5.17-10.75,11.18-25.58,15.14-36.86,2.72-7.75,5.05-16.49-.63-23.55,6.75-4.12,11.15-11.98,14.41-19.01,4.62-9.99,9.75-22.42,13.43-32.79,14.21-40.01-19.08-34.02-46.27-34.12-22.28-.08-44.58-.06-66.86,0-7.94.02-19.07-.9-26.57,0-.95.11-1.79.48-2.5,1.11l-37.42,90.59-32.52,79.06,19.9-167.67c-.22-1.84-1.29-3.07-3.12-3.41-7.64-.06-15.29,0-22.93-.02-15.75-.05-33.24-.91-48.79,0-1.91.11-3.7,0-4.85,1.84-17.48,24.74-34.81,49.58-52.26,74.33ZM632.1,356.8c-12.24.48-23.2,5.45-31.44,14.44-3.81,4.15-6.87,8.88-9.35,13.95-14.08,36.81-31.29,72.6-45.04,109.51-3.44,9.23-6.42,19.95-.33,28.84,8.2,11.97,27.21,9.7,39.9,9.78,25.96.16,51.93-.13,77.9.02,2.96-.4,5.93-.81,8.84-1.46,18.92-4.24,34.83-18.7,42.09-36.47,12.5-33.93,29.35-67.26,41.4-101.24,6.65-18.76,8.11-36.12-16.82-37.73-35.05.32-70.13-.44-105.17,0-.61,0-1.61-.23-1.98.37ZM780.28,356.8c-1.55.13-1.96.29-2.8,1.72l-70.01,171.14c-.15,2.14,1.6,3.54,3.6,3.66,14.76-.92,30.98,1.22,45.56.02.73-.06.99-.2,1.6-.38,2.06-.59,2.08-1.21,2.95-3.01,6.58-13.49,10.78-29.9,17.58-43.08.28-.55.47-1.14.97-1.56h35.6l-2.82,44.85c.63,4.49,8.49,3.12,11.86,3.17,11.53.14,26.21.97,37.42.01,5.91-.5,3.96-8.03,4.13-12.48s.59-8.69.75-12.97c.3-7.93.15-15.86.75-23.79l.56-.52c4.22-.8,8.02-2.39,11.65-4.61,2.13-1.3,8.45-5.86,9.07-8.09,3.94-4.18,6.58-9.44,9.1-14.56l22.35-54.75c4.51,1.79,9.93,1.04,14.81,1.08,12.16.11,24.35-.23,36.5.18l-51.6,125.35c-1.09,2.4-.17,4.97,2.62,5.16,13.79-.21,27.61.24,41.39,0,3.11-.06,7.52.99,8.93-2.45l52.57-128.17c9.37-.13,18.76-.03,28.13-.06,6.94-.02,15.54.64,22.24.01,1.86-.17,2.91-.63,3.85-2.29l10.41-25.16,14.84,87.88-26.51,65.24c-.72,2.9-.13,3.97,2.64,4.63.24.06.71.58,1.22.39,14.49-1,30.58,1.24,44.87-.01,2.94-.26,3.16-.88,4.31-3.28,9.85-20.57,16.81-43.75,26.43-64.57l31.95-31.8,72.48-71.46c2.17-3.06.08-5.64-3.27-5.79l-48.02.04c-1.48.19-2.59.73-3.67,1.75-4.25,3.99-8.36,9.14-12.45,13.37-13.17,13.61-26.29,27.29-39.38,40.98-1.61,1.68-3.3,3.35-5.07,4.86-.04-.77.08-1.57,0-2.34-1.85-17.18-3.8-36.04-6.55-53.02-.65-3.98-.72-5.34-5.17-5.66h-198.11c-.49-.21-1,.33-1.22.38-1.52.3-1.97.08-2.9,1.6-2.74,4.48-4.87,12.31-7.17,17.41-.18.41-.26,1.25-.78,1.21v-5.96c0-9.31-10.8-14.7-18.98-14.62-42.4.33-84.82-.45-127.22,0-.61,0-1.61-.23-1.98.37ZM177.81,411.31h-9.4c-.08.52.63.49,1.01.61.86.27,6.43,1.92,6.79,1.91.87-.02,1.79-2.36,1.6-2.52ZM560.18,448.49l4.34-11.55c-1.22,1.15-2,2.69-3.06,3.98-.56.68-2.9,2.6-3.01,3.11-.04.2.84,3.37,1,3.94.15.52-.21.63.73.53ZM116.74,478.09h16.81c.37,0,.76.93.54-.36l-15.32-4.36-2.03,4.72Z" fill="#003d64"/>
    <path d="M1014.84,345.25c42.35-.04,84.71.05,127.06-.03,5.47,1.38,10.31,2.25,12.34,8.25l5.17,41.23,42.68-44.55c3.67-3.22,7.61-3.53,12.06-4.93h47.74c4.08,1.43,7.88,1.42,10.58,5.31,3.15,4.55,1.82,10.89-.72,15.41-34.46,35.21-70.06,69.35-104.92,104.21-9.09,20.34-16.33,41.64-25.43,61.96-3.59,8.02-7.95,10.59-16.53,12.37-14.42-1.04-31,1.46-45.17.04-8.75-.88-14.04-6.01-12.27-15.19l26.19-64.11-9.13-55.39c.32-.4-.1-.43-.43-.35-1.21.33-2.53,1.83-3.8,2.35-1.92.78-4.65.99-6.69,1.62l-41.22-.02-1.08.37-49.26,120.1c-2.78,6.18-9.13,9.68-15.77,10.24-14.56,1.23-30.82-.96-45.56,0-8.85-.75-13.06-5.56-12.27-14.44,14.51-35.96,29.7-71.66,44.27-107.59,2.59-1.63,4.45-4.1,6.68-6.14.29-.27.96-1.21,1.27-.36-15.42,36.71-29.62,73.97-45.19,110.63-2.5,6.71,1.19,11.53,8.13,12.12,14.5-.95,30.52,1.22,44.84,0,3.95-.34,7.22-1.8,8.91-5.54l51.07-124.79,1.07-.38,45.57.03c1.73-.33,3.9-.64,5.48-1.38,4.14-1.96,5.44-9.99,7.52-13.79l11.93,70.23-26.03,63.34c-2.08,5.9.7,11.37,7.21,11.92,14.89,1.27,31.57-.99,46.65,0,5.96-.51,6.9-3.54,9.01-8.33,8.97-20.31,16.32-41.39,25.33-61.7l103.35-102.17c4.94-5.91,2.12-13.32-5.79-14.08-15.42-1.48-33.13,1.11-48.8-.02-2.83.24-4.97,1.17-7.03,3.08l-49.87,51.8-5.52-46.29c-1-5.34-3.06-8.11-8.75-8.59h-123.07s-6.14-.71-6.14-.71c-.8-1.18,4.3-4.27,4.34-5.77Z" fill="#19c000"/>
    <path d="M871.72,499.75c.16-4.07.3-8.15.41-12.22,14.91-3.99,24.22-16.36,30.37-29.77l20.54-50.43c.25-.02.45.37.54.37h40.3c-.53,2.8-2.16,5.34-3.25,7.94-.31-.85-.98.09-1.27.36-2.23,2.05-4.09,4.51-6.68,6.14,1.15-2.85,2.27-5.75,3.25-8.66h-29.82c-6.7,14.65-11.92,29.98-18.55,44.65-6.42,14.2-14.93,26.13-29.64,32.66-.17.69-.03,1.41-.06,2.11-1.3.83-4.34,3.28-5.09,4.5-.47.76.78,2.3-1.05,2.36Z" fill="#18bb04"/>
    <path d="M757.88,538.02c3.37-.56,5.36-1.58,7.13-4.61l17.44-43.04h27.83c-.2,3.37-.49,6.74-.72,10.11-2.55.88-3.79,4.58-6.51,5.05.21-3.12.49-6.26.72-9.39h-17.89l-16.54,39.43c-1.44,2.54-5.41,6.02-8.11,7.06-8.27,3.2-25.06,1.93-34.44,1.88l5.3-6.15,24.56.04c.49.21,1.04-.36,1.22-.39Z" fill="#16b00d"/>
    <path d="M812.09,543.79l4.34-5.41c14.43-.92,30.4,1.23,44.65.01,5.48-.47,8.93-2.91,9.52-8.54,1-9.54.75-20.38,1.13-30.1,1.83-.06.58-1.59,1.05-2.36.75-1.22,3.79-3.67,5.09-4.5-.41,9.31-.73,18.66-1.1,27.96-.25,6.26.61,9.43-2.87,15.19-3,4.96-9.81,7.87-15.37,8.48-13.75,1.49-30.09-1.13-44.11.02-.92.23-1.7-.6-2.33-.74Z" fill="#19c001"/>
    <path d="M399,425.75c2.03-.44,4.5-4.8,5.97-5.41,1.23-.51-.13,3.19-.17,3.44l-27.85,68.75-.35-1.62c2.66-14.49,2.7-30.32,5.5-44.68.79-4.05,3.3-7.2,6.78-9.29-.58,4.87-1.12,9.76-1.8,14.63v3.42c3.49-9.93,7.93-19.51,11.92-29.24Z" fill="#01435f"/>
    <path d="M807.75,345.25l-4.7,5.59c-.07.74.03.48.54.55,1.12.15,2.49-.38,3.44.36-8.48.54-17.84-.72-26.22-.01-3.64.31-5.98,1.68-7.83,4.82l-7.52,19.02c-.59.1-.34-.49-.36-.89-.36-7.19-2.08-12.96-7.95-17.52.92-1.99,3.1-3.57,4.7-5.05.12.1.59.09.9.35,1.64,1.38,3.13,2.93,4.34,4.7,1.83-4.12,5.44-8.44,9.78-10.08,8.1-3.07,21.9-1.79,30.88-1.82Z" fill="#0e882b"/>
    <path d="M634.63,345.61c-.94,1.95-2.89,3.28-4.34,4.87-.27.29-1.21.96-.36,1.27-6.22,1.33-12.69,2.37-18.45,5.22-10.46,5.18-19.01,14.57-23.84,25.1-.68.08-.25-.71-.19-1.09,1.21-7.55.66-15.46-4.86-21.28,1.17-2.15,3.25-3.79,5.06-5.41,3.2,3.06,4.18,5.54,5.78,9.57.57,1.43.72-.01,1.24-.56,10.65-11.11,24.83-16.18,39.96-17.68Z" fill="#065b4d"/>
    <path d="M545.37,345.25c-1.11,2.58-4.28,3.92-5.42,6.5-18.36-.12-36.74.09-55.11,0-.33-.01-.81-.25-.9-.55-.4-1.36,4.5-4.25,4.7-5.95,18.9-.03,37.84-.16,56.74,0Z" fill="#02465d"/>
    <path d="M545.73,530.8l-4.7,5.05c-2.2-1.84-3.82-2.85-5.49-5.53-.54-.86-2.11-5.12-2.98-4.93-10.67,10.39-23.85,15.82-38.51,18.04,1.21-2.6,4.21-3.9,5.42-6.5,15.22-2.92,29.24-10.95,37.59-24.18.45-.1.45.37.54.71,1.81,6.82,2.15,12.29,8.13,17.34Z" fill="#0a733b"/>
    <path d="M1014.84,345.25c-.04,1.5-5.13,4.59-4.34,5.77l6.14.73h-54.93c-.62-.56-3.51-.46-3.25-1.61.19-.83,4.25-3.41,4.33-4.88,17.34-.09,34.7.02,52.04,0Z" fill="#17b707"/>
    <path d="M355.27,538.38c-1.32,2.18-4.53,3.58-5.06,6.14-12.21.12-24.44-.07-36.66-.02-4.65-1.34-8.57-1.9-10.68-6.84l4.93-4.31c3.43,2.69,4.64,4.59,9.35,5.03,11.18,1.04,26.58.19,38.13,0Z" fill="#02485b"/>
    <path d="M587.65,354.27c-1.81,1.63-3.89,3.26-5.06,5.41-9.29-9.79-30.19-7.86-42.65-7.94,1.14-2.58,4.31-3.92,5.42-6.5,13.69.11,31.73-1.08,42.28,9.02Z" fill="#045055"/>
    <path d="M962.79,345.25c-.08,1.47-4.15,4.06-4.33,4.88-.26,1.16,2.63,1.05,3.25,1.61-7.08.45-14.89-.6-21.88-.01s-7.59,4.01-10.11,9.39c-3.24-5.27-8.75-7.56-14.64-8.66-.56-.72-.27-.87.16-1.46,1.05-1.43,3.19-2.49,3.82-4.32,3.93.87,7.99,1.77,11.2,4.33.01-.43.22-.8.54-1.09,6.9-6.28,23.04-4.64,32-4.69Z" fill="#16af0d"/>
    <path d="M809.56,500.47c-.57,8.43-1.62,17.78-1.8,26.18-.15,7.07,1.31,10.41,8.67,11.73l-4.34,5.41c-2.35-.5-4.04-.66-6.11-2.01-5.14-3.36-4.59-9.28-4.38-14.79.26-7.02.99-14.41,1.46-21.46,2.72-.47,3.95-4.17,6.51-5.05Z" fill="#17b707"/>
    <path d="M490.43,538.02c-.38.6-1.37.36-1.98.37-9.33.12-18.69,0-28.01,0-11.32,0-22.65-.02-33.97,0-11.01.02-22.04-.02-33.06,0-.95.18-5.13,4.39-5.25,5.77-6.4-.02-13.39.38-19.71.01-1.38-.08-2.66-.77-3.95-.75-1.41.03-2.67.95-3.98,1.1-2.96.36-7.17-.04-10.31-.01.53-2.56,3.74-3.95,5.06-6.14,7.99-.13,15.69-.3,23.66-.38,36.87-.38,74.83,1.43,111.51.02Z" fill="#044f56"/>
    <path d="M663.91,538.38c-5.78.44-12.52-.04-18.43,0-10.23.07-20.49-.02-30.72,0-11.74.02-23.49-.01-35.24,0l-.54.19-5.06,5.95c-11.92-.23-23.5-.8-32.89-8.66l4.7-5.05c5.3,4.47,12.64,6.15,19.34,7.21,32.26.32,64.58-.4,96.86,0,.61,0,1.61-.23,1.98.37Z" fill="#0d7f32"/>
    <path d="M847.87,345.25c-.68,2.59-3.65,3.95-5.06,6.13,1.62.09,3.28-.1,4.91-.01.47.03.83.37.87.38h-41.56c-.95-.74-2.32-.21-3.44-.36-.51-.07-.61.19-.54-.55l4.7-5.59c13.37-.05,26.75,0,40.12,0Z" fill="#109322"/>
    <path d="M884.01,345.25c-.38,1.93-4.48,4.21-5.06,5.6-.4.98,1.86.2,2.17.9-10.75-.35-21.81.47-32.53,0-.05,0-.41-.35-.87-.38-1.62-.09-3.28.1-4.91.01,1.41-2.19,4.38-3.55,5.06-6.13,12.04,0,24.1-.05,36.14,0Z" fill="#129d1a"/>
    <path d="M703.3,533.69c-1.98,1.27-3.23,3.8-5.42,4.69-1.33-2.41-1.11-3.42-1.45-5.96-.05-.36.1-.79-.53-.53-1.45.58-4.06,2.75-5.73,3.67-7.48,4.11-12.88,5.56-21.2,7.16,1.48-2.17,4.22-3.54,5.06-6.14,12.68-2.98,24.57-10.48,33.07-20.21.5.25,0,.97-.12,1.33-1.62,5.28-5.79,10.11-3.68,16Z" fill="#13a019"/>
    <path d="M666.08,345.25c.08,1.21-5.6,5.31-4.7,6.13,9.87.01,19.76,0,29.63,0,11.56.01,23.14-.12,34.7,0,4.53.05,8.92,0,13.37.36h-109.15c-.86-.31.09-.98.36-1.27,1.46-1.58,3.4-2.92,4.34-4.87,10.01-.99,21.25-.32,31.44-.36Z" fill="#076346"/>
    <path d="M919.06,346.69c-.63,1.83-2.76,2.89-3.82,4.32-.43.58-.72.74-.16,1.46-10.68-1.98-23.03-.02-33.97-.72-.31-.7-2.57.08-2.17-.9.58-1.39,4.67-3.67,5.06-5.6,11.4.04,24.01-1.01,35.06,1.44Z" fill="#14a514"/>
    <path d="M499.47,536.93c-1.21,2.6-4.21,3.9-5.42,6.5-11.66,1.76-26.27.68-38.31.72l4.7-5.78c9.33,0,18.68.12,28.01,0,.61,0,1.61.23,1.98-.37,3.27-.13,5.83-.47,9.04-1.08Z" fill="#086942"/>
    <path d="M614.76,538.38l-5.06,6.14c-11.91-.02-23.88.23-35.78,0l5.06-5.95.54-.19c11.75,0,23.5.02,35.24,0Z" fill="#0f892a"/>
    <path d="M730.77,345.25l-5.06,6.14c-11.55-.12-23.14.01-34.7,0l5.06-6.14c11.55.03,23.14-.16,34.7,0Z" fill="#0a743a"/>
    <path d="M761.85,352.11c-1.6,1.48-3.78,3.06-4.7,5.05-5.2-4.03-11.66-4.9-18.07-5.41-4.45-.36-8.84-.31-13.37-.36l5.06-6.14c10.68.15,22.38.11,31.08,6.86Z" fill="#0c7e32"/>
    <path d="M703.3,533.69c.97,2.71,5.85,4.43,8.5,4.69l46.08-.36c-.18.03-.74.6-1.22.39l-24.56-.04-5.3,6.15c-8.25-.04-24.37,2.12-28.91-6.14,2.19-.89,3.44-3.43,5.42-4.69Z" fill="#14a713"/>
    <path d="M460.44,538.38l-4.7,5.78c-11.32.04-22.65-.01-33.97,0l4.7-5.78c11.32-.02,22.65,0,33.97,0Z" fill="#065f49"/>
    <path d="M426.46,538.38l-4.7,5.78c-11.2.01-22.41.03-33.61,0,.12-1.38,4.3-5.59,5.25-5.77,11.02-.03,22.05.01,33.06,0Z" fill="#05584f"/>
    <path d="M645.48,538.38l-5.06,6.14c-10.23.08-20.49.02-30.72,0l5.06-6.14c10.23-.02,20.49.07,30.72,0Z" fill="#109223"/>
    <path d="M696.07,345.25l-5.06,6.14c-9.87,0-19.76,0-29.63,0-.91-.82,4.78-4.93,4.7-6.13,9.99-.04,20-.02,30,0Z" fill="#096b41"/>
    <path d="M674.03,536.57c-.84,2.6-3.58,3.96-5.06,6.14-10.35,1.99-18.1,1.73-28.55,1.8l5.06-6.14c5.91-.04,12.65.44,18.43,0,2.85-.22,7.26-1.13,10.12-1.8Z" fill="#129a1d"/>
    <path d="M361.41,356.44c7.64.03,15.29-.04,22.93.02,1.83.34,2.9,1.57,3.12,3.41l-19.9,167.67,32.52-79.06c1.55,2.59-1.29,5.63.36,7.94-2.7,6.59-5.26,13.26-7.95,19.85-2.06,5.04-4.08,10.13-6.14,15.16-2.22,5.42-4.63,10.82-6.87,16.24-2.52,6.13-5.05,12.28-7.59,18.41-.55,1.32-1.43,2.56-1.81,3.97l53.85.36-.36,2.89c-17.64-.02-35.3.01-52.95,0-1.84-.12-3.15-1.15-3.61-2.89-.22,0-.17,2.45-2.91,2.87-5.66.87-15.66,0-21.84.02l.36-2.89c6.69-.02,13.4,0,20.1.02l.86-.38.69-1.66c4.57-38.18,8.87-76.41,13.41-114.58,1.57-13.25,3.51-26.73,5.06-40.07.46-3.93,1.14-8.22,1.44-12.1.04-.51.25-1.77-.36-1.98-7.46-.01-14.94.02-22.41,0v-3.25Z" fill="#b3ad00"/>
    <path d="M1065.8,399.4c3.59-.02,7.2.06,10.79-.05l14.86-35.33,16.62,98.38-.17,2.34-26.57,65.33,46.98-.36c-.05.19.05.49,0,.72l-10.62-.02-.79,2.57-35.93-.02c-2.77-.66-3.36-1.73-2.64-4.63l26.51-65.24-14.84-87.88-10.41,25.16c-.94,1.66-2,2.12-3.85,2.29-6.7.63-15.3-.04-22.24-.01-.3-.9.29-2.53,1.26-2.53h6.87c.12,0,.61-.34,1.07-.38,1-.09,2.4.37,3.09-.35Z" fill="#5d8500"/>
    <path d="M672.58,531.88c-.54-.99-.54-2.26,0-3.25,21.17-5.34,32.28-19.16,40.48-38.26,1.49-3.48,2.88-6.97,4.34-10.47.68-1.65,1.52-3.27,1.81-5.05l.79-1.18c1.21-3.25,2.58-6.44,3.91-9.65,2.08-5.04,4.06-10.13,6.14-15.16,2.28-5.52,4.6-11.06,6.87-16.61,1.33-3.24,2.65-6.5,3.98-9.75,1.91-4.69,3.89-9.37,5.78-14.08,2.08-5.19,4.62-10.24,6.51-15.52,2.61-7.34,6.02-17.16,2.53-24.55-.81-2.61-1.44-3.26-3.61-4.69-3.77-2.5-6.27-3.39-10.84-3.61-.38-.6-1.37-.36-1.98-.37-7.41-.08-14.83-.01-22.23,0l.36-2.89c-18.55.04-37.11-.06-55.66,0-9.77.03-19.92-.38-29.64,0,.38-.6,1.37-.36,1.98-.37,35.05-.43,70.12.33,105.17,0,24.92,1.61,23.47,18.97,16.82,37.73-12.05,33.98-28.9,67.31-41.4,101.24-7.26,17.77-23.18,32.23-42.09,36.47Z" fill="#8a9a00"/>
    <path d="M780.28,356.8c1.48-.13,3.17.02,4.7,0v2.89c-1.54.02-3.11-.07-4.65.05-2.06,5.44-4.33,10.82-6.55,16.2-1.14,2.74-2.13,5.57-3.25,8.3-1.44,3.48-2.9,6.98-4.34,10.47-1.68,4.09-3.38,8.18-5.06,12.27-1.09,2.64-2.17,5.3-3.25,7.94-1.29,3.13-2.69,6.25-3.98,9.39-1.37,3.34-2.6,6.77-3.98,10.11-1.78,4.33-3.64,8.66-5.42,13-3.4,8.29-6.72,16.62-10.12,24.91-3.7,9.03-7.5,18.04-11.2,27.07-4.19,10.23-8.5,20.43-12.65,30.68h47.34c.01.63.71,1.95.36,2.89-.61.17-.87.32-1.6.38-14.58,1.2-30.81-.93-45.56-.02-1.99-.12-3.74-1.52-3.6-3.66l70.01-171.14c.84-1.42,1.25-1.58,2.8-1.72Z" fill="#899900"/>
    <path d="M533.44,356.8c27.19.1,60.48-5.89,46.27,34.12-3.68,10.37-8.81,22.8-13.43,32.79-3.25,7.04-7.66,14.89-14.41,19.01,5.68,7.06,3.35,15.8.63,23.55-3.96,11.28-9.97,26.11-15.14,36.86-5.67,11.8-16.2,21.6-28.5,26.22v-3.25c14.39-5.94,21.41-15.56,27.47-29.24,1.8-4.08,3.35-8.17,5.06-12.27,1.6-3.85,3.16-7.67,4.7-11.55,2.08-5.25,4.31-9.47,5.42-15.16s1.32-8.71-2.53-13.36c-.71-.85-1.21-1.38-2.16-1.99,6.38-3.88,11.18-9.48,14.64-16.06,1.54-2.93,2.49-6.03,3.79-9.03,3.65-8.47,7.26-17.03,10.48-25.63,5.08-13.57,9.57-28.66-10.12-31.41-.47-.74-1.22-.69-1.97-.74-9.48-.66-20.53.02-30.19.02v-2.89Z" fill="#9ea300"/>
    <path d="M943.28,399.4c10.95.02,21.94-.16,32.88.18l-53.48,130.5h46.98s-5.78.36-5.78.36v2.89c-13.78.25-27.6-.2-41.39,0-2.79-.19-3.71-2.76-2.62-5.16l51.6-125.35c-12.15-.41-24.34-.07-36.5-.18,0-.66-.24-1.84.59-2.12,2.01-.68,6.02,1.03,7.72-1.13Z" fill="#708e00"/>
    <path d="M780.28,356.8c.38-.6,1.37-.36,1.98-.37,42.4-.44,84.82.34,127.22,0,8.18-.08,18.98,5.31,18.98,14.62v5.96c.52.04.59-.8.78-1.21,2.3-5.09,4.43-12.93,7.17-17.41.93-1.52,1.37-1.3,2.9-1.6h15.54l-.36,2.89c-4.3.02-10.24-.5-14.3-.02-.4.05-.79,0-1.08.37-3.37,7.75-6.37,15.66-9.57,23.48-2.16,5.29-4.63,10.48-6.5,15.88,4.93.01,9.88,0,14.82,0,1.8,0,3.62,0,5.42,0-1.7,2.16-5.71.45-7.72,1.13-.83.28-.59,1.45-.59,2.12-4.88-.04-10.3.7-14.81-1.08l-22.35,54.75c-2.52,5.12-5.16,10.38-9.1,14.56.31-1.11.4-3.57,0-4.69,2.22-3.07,4.59-7.83,6.21-11.31,6.32-13.56,11.64-28.54,17.28-42.48,3.12-7.72,6.56-15.26,9.4-23.1,2.22-6.15,4.53-12.73,3.25-19.49-.51-2.69-1.33-3.94-3.25-5.78-2.63-2.51-6.15-3.76-9.76-3.97-1.08-.67-2.97-.36-4.34-.36v-2.89c-16.62,0-33.25.01-49.87,0-24.19-.01-48.46-.39-72.64,0-1.52.02-3.22-.13-4.7,0Z" fill="#748f00"/>
    <path d="M600.3,376.29c-.79,1.63-2.57,3.58-3.54,5.3-4.57,8.03-7.39,16.87-10.91,25.38s-7.23,17.57-10.84,26.35c-2.77,6.73-5.57,13.47-8.31,20.22s-5.29,13.3-7.95,19.85c-2.84,7-5.96,13.87-8.67,20.94-2.92,7.6-5.37,12.42-3.98,20.94.82,5.03,2.79,7.63,6.87,10.47,3.59,2.5,6.88,3.42,11.2,3.97,5.48.7,11.09.23,16.62.36h84.57c-.11.02-.74.63-1.22.39l-77.93-.03-.36,2.89c-12.69-.08-31.7,2.19-39.9-9.78-6.09-8.89-3.11-19.61.33-28.84,13.75-36.92,30.96-72.71,45.04-109.51,2.48-5.07,5.54-9.8,9.35-13.95,1.2,1.1.24,3.82-.36,5.05Z" fill="#9da300"/>
    <path d="M255.52,437.66c-20.21,28.7-40.71,57.27-60.65,86.16-1.4,2.04-3.3,4.36-4.04,6.61h47.34c.07,0,0-.72.35-1.26,6.46-10.02,13.88-19.48,20.42-29.45l.71-.55c1.85.35,3.75.23,5.62.21,1.06,1.74,6.6-.3,7.2,1.66l-.32,1.06-10.69.17-.52.37-19.93,29.37-1.75,1.14-48.63.18c-2.59-.17-3.74-2.51-2.61-4.79,22.32-32.1,44.97-63.98,67.49-95.94,1.7,1,0,3.44,0,5.05Z" fill="#c5b500"/>
    <path d="M1065.8,399.4c-.69.72-2.09.26-3.09.35-.46.04-.95.38-1.07.38h-6.87c-.97,0-1.56,1.63-1.26,2.53-9.37.03-18.76-.07-28.13.06l-52.57,128.17c-1.4,3.44-5.82,2.39-8.93,2.45v-2.89s5.78-.36,5.78-.36l53.55-130.62c14.19-.18,28.4.03,42.59-.06Z" fill="#698a00"/>
    <path d="M188.29,432.61c-19.82-6.07-39.79-11.72-59.63-17.69l6.87-17.69h62.16l-8.31,20.58,18.07.36-.36,2.89c-5.46-.02-12.7.59-17.9,0-2.49-.28-3.45-1.99-2.91-4.36l6.71-16.22h-55.3l-4.64,11.45.31,1c18.97,5.52,37.85,11.37,56.74,17.14l-.16,2.19-1.65.34Z" fill="#cdb900"/>
    <path d="M1194.82,371.6c4.09-4.23,8.21-9.38,12.45-13.37,1.08-1.01,2.19-1.56,3.67-1.75l48.02-.04c3.35.14,5.44,2.73,3.27,5.79l-72.48,71.46c-.59-1.2.45-2.51-.36-3.61,19.87-19.68,39.47-39.61,59.44-59.21,3.12-3.06,7.88-6.69,10.49-10.1.28-.36.7-.46.54-1.09h-49.33c-4.78,5.15-9.77,10.11-14.64,15.16h-.72c-.35-1.09.81-2.84-.36-3.25Z" fill="#4c7e00"/>
    <path d="M112.04,456.07c17.69,5.42,35.47,10.53,53.12,16.08.47.15.96.18,1.45.17l-7.59,19.85h-62.16l9.03-23.1h-46.26s.87-.38.87-.38h34c1.19-1.08,3.54-.77,3.08-2.87,4.17.04,13.3-1.86,11.37,5.03-1.64,5.86-5.54,12.16-7.4,18.07h55.3l5.42-14.44c-12.43-3.51-24.79-7.31-37.14-11.1-4.15-1.27-8.25-2.79-12.37-4.07.56-1.22.02-2.26-.72-3.25Z" fill="#d0bb00"/>
    <path d="M939.3,356.8c.22-.04.73-.58,1.22-.39h198.11c4.45.33,4.53,1.7,5.17,5.67,2.76,16.97,4.71,35.84,6.55,53.02.08.77-.04,1.57,0,2.34,1.77-1.52,3.46-3.18,5.07-4.86,13.1-13.69,26.22-27.37,39.38-40.98,1.17.41.02,2.16.36,3.25h.72c-15.89,16.48-31.42,33.36-47.7,49.45l-7.95-64.26c-.38-.6-1.37-.36-1.98-.37-5.36-.06-10.73,0-16.09,0v-2.89c-26.5,0-53.01.01-79.51,0-29.27-.01-58.55,0-87.82,0h-15.54Z" fill="#578200"/>
    <path d="M132.64,356.8c2.27-.11,4.59.04,6.87,0v2.89c-8.61.09-13.95.22-22.14,3.33-12.49,4.75-19.41,14.06-24.74,25.83-4.54,10.04-9.77,22.48-13.39,32.84-8.65,24.78,3.48,24.98,22.9,31.08,3.1.97,6.56,2.28,9.89,3.31.75.99,1.28,2.03.72,3.25-8.64-2.68-17.8-4.65-26.3-7.84-16.84-6.33-15-17.74-9.75-32.32,3.71-10.31,8.68-22.3,13.22-32.28,8.56-18.82,21.5-29.07,42.71-30.08Z" fill="#d7be00"/>
    <path d="M757.88,530.08c-.03-1.82,6.9-17.49,8.14-20.56,3.72-9.18,7.52-18.45,11.55-27.45h41.38l-3.25,48.01h46.98s-37.95.36-37.95.36l-.36,2.89c-3.37-.04-11.23,1.32-11.86-3.17l2.82-44.85h-35.6c-.49.42-.68,1.01-.97,1.56-6.8,13.19-11,29.59-17.58,43.08-.87,1.79-.89,2.41-2.95,3.01.35-.94-.35-2.26-.36-2.89Z" fill="#839600"/>
    <path d="M162.63,532.6v-2.89c-1.24-.35-.98.89-2.07,1.02-.9.11-2.21-.29-3.36-.3,1.46-1.1,4.01-.85,5.86-1.19,31.56-5.72,39.79-30.89,49.97-57.3,3-7.8,9.46-21.85,2.56-28.88-4.56-4.65-20.53-8.38-27.3-10.45l1.65-.34.16-2.19c18.3,5.6,37.01,6.02,30.26,31.12-3,11.17-10.06,27.38-15.01,38.07-8.42,18.16-22.55,30.27-42.71,33.33Z" fill="#c8b700"/>
    <path d="M207.09,421.06l.36-2.89-18.07-.36,45.94-.22c2.93-7.93,6.7-15.58,9.63-23.51,4.11-11.13,9.64-27.56-5.61-32.48-8.27-2.67-16.07-1.86-24.65-1.91l.36-2.89c-25.16.3-50.37-.41-75.53,0-2.28.04-4.6-.11-6.87,0l1.98-.37c30.63,1.17,62.4-1.53,92.9,0,26.56,1.33,28.99,14.76,21.04,37.29-3.12,8.83-7.17,17.4-10.81,26.03l-2.29,1.32c-9.46-.04-18.92.03-28.38,0Z" fill="#c4b500"/>
    <path d="M1189.76,433.69l-31.95,31.8c-9.61,20.82-16.57,44-26.43,64.57-1.15,2.4-1.37,3.02-4.31,3.28-14.3,1.25-30.38-.99-44.87.01-.51.2-.98-.33-1.22-.39l35.93.02.79-2.57,10.62.02c.05-.23-.05-.53,0-.72.43-1.64,1.01-3.11,1.64-4.68,8.2-20.45,16.91-40.71,25.16-61.14,11-11.69,22.89-22.53,34.28-33.81.81,1.1-.23,2.41.36,3.61Z" fill="#568200"/>
    <path d="M466.58,356.8v2.89c-8.79.02-17.59-.01-26.38,0-12.85,32.03-26.49,63.74-39.59,95.66-.16.39-.08.86-.17,1.08-1.65-2.31,1.18-5.35-.36-7.94l37.42-90.59c.72-.63,1.55-1,2.5-1.11,7.5-.89,18.64.03,26.57,0Z" fill="#aeaa00"/>
    <path d="M97.58,465.82c.47,2.1-1.88,1.79-3.08,2.88h-34s-.87.37-.87.37c-3.46,10.72-9.64,21.41-12.83,32.13-1.83,6.16-2.75,13.15.48,19.01,6.01,10.9,21.89,10.13,32.59,10.23v2.89c-14.52-.14-35.58.66-37.86-18.68-1.35-11.5,7.72-30.36,12.39-41.23,1.2-2.81,2.15-7.62,5.75-7.61,12.47.13,24.96-.11,37.42.02Z" fill="#dabf00"/>
    <path d="M888.71,470.87c-.61,2.23-6.93,6.79-9.07,8.09-3.62,2.22-7.43,3.81-11.65,4.61l-.56.52c-.61,7.93-.45,15.86-.75,23.79-.16,4.28-.59,8.69-.75,12.97s1.78,11.98-4.13,12.48c-11.21.96-25.89.13-37.42-.01l.36-2.89,37.95-.36,1.49-48.51.56-.52c4.31-.72,8.61-2.06,12.37-4.25,4.08-2.37,8.84-6.8,11.59-10.62.4,1.12.31,3.58,0,4.69Z" fill="#7a9200"/>
    <path d="M265.27,499.39c18.3-.14,36.63.1,54.93,0l-1.81,14.08c-.11.85-.55,2.13-.68,3.12-.58,4.6-1.16,9.23-1.49,13.85,8.79-.02,17.59.02,26.38,0l-.36,2.89c-7.75.03-18.47.83-25.85,0-1.51-.17-2.68-.86-3.04-2.38l3.23-28.32h-55.66s.52-.37.52-.37l10.69-.17.32-1.06c-.6-1.96-6.13.08-7.2-1.66Z" fill="#bab000"/>
    <path d="M508.86,526.11v3.25c-5.3,1.99-12.58,3.66-18.24,3.99-21.4,1.25-45.38,0-67.06-.02l.36-2.89-53.85-.36h1.81c19.99,0,40,0,59.99,0s40.71,1.13,59.83.02c5.35-.31,12.2-1.94,17.15-3.99Z" fill="#a7a800"/>
    <path d="M312.62,356.44v3.25c-.91.03-2.01-.27-2.71.37-17.8,26.1-36.21,51.78-54.4,77.61,0-1.61,1.7-4.05,0-5.05,17.45-24.75,34.78-49.6,52.26-74.33,1.14-1.84,2.94-1.73,4.85-1.84Z" fill="#c0b300"/>
    <path d="M672.58,528.63c-.54.99-.54,2.26,0,3.25-2.91.65-5.88,1.05-8.84,1.46-25.96-.15-51.94.14-77.9-.02l.36-2.89,77.93.03c.48.25,1.11-.37,1.22-.39,2.39-.32,4.89-.85,7.23-1.44Z" fill="#969f00"/>
    <path d="M157.21,530.44c1.14,0,2.45.41,3.36.3,1.09-.13.83-1.37,2.06-1.02v2.89c-1.86.28-3.72.45-5.59.74-25.72-.21-51.46.23-77.18-.01v-2.89c25.77.23,51.57-.21,77.34,0Z" fill="#d2bb00"/>
    <path d="M632.1,356.8c9.71-.38,19.87.03,29.64,0l-.36,2.89c-9.51.02-20.12-.61-29.47-.02-12.61.8-23.74,6.96-31.61,16.62.6-1.23,1.57-3.96.36-5.05,8.24-8.99,19.2-13.96,31.44-14.44Z" fill="#97a000"/>
    <path d="M533.44,356.8v2.89c-22.28-.01-44.58-.05-66.86,0v-2.89c22.28-.06,44.58-.08,66.86,0Z" fill="#a6a700"/>
    <path d="M361.41,356.44v3.25c-16.07-.04-32.8-.56-48.79,0v-3.25c15.55-.91,33.04-.05,48.79,0Z" fill="#bab000"/>
    <path d="M560.18,448.49c-.93.1-.57,0-.73-.53-.17-.57-1.04-3.74-1-3.94.1-.52,2.45-2.43,3.01-3.11,1.06-1.29,1.85-2.83,3.06-3.98l-4.34,11.55Z" fill="#086545"/>
    <path d="M312.62,359.69c15.99-.56,32.72-.04,48.79,0,7.46.02,14.94-.01,22.41,0-.65,4.54-.89,9.17-1.45,13.72-1.62,13.37-3.45,26.97-5.06,40.43-2.47,20.72-4.56,41.53-7.27,62.23-.33,2.55-.65,7.44-1.4,9.61-.12.34-.93.62-.42,2.1l-48.85,22.78-.62,3.09-.35-.18,1.81-14.08c-18.3.1-36.63-.14-54.93,0-1.87.01-3.77.14-5.62-.21l-.71.55c-6.55,9.97-13.97,19.43-20.42,29.45-.34.53-.29,1.26-.35,1.26h-47.34c.74-2.25,2.64-4.58,4.04-6.61,19.94-28.89,40.44-57.46,60.65-86.16,18.18-25.83,36.6-51.51,54.4-77.61.7-.64,1.8-.33,2.71-.37ZM284.79,462.57h40.48l8.68-65.16c.05-.75,0-.47-.54-.54-.8-.12-3.13-.12-3.8.19l-44.82,65.52Z" fill="#88c400"/>
    <path d="M565.61,360.41c19.69,2.75,15.2,17.84,10.12,31.41l-53.24,24.97c-.98.36-1.96,1.09-2.77-.06.09-.22.02-.7.17-1.08,2.61-6.25,5.24-12.5,7.78-18.78h-55.66l-12.65,29.96v.36c0,.48.54.35.89.38,11.39,1,26.04.03,37.78-.02-.32.76-1,1.06-1.67,1.4-33.25,16.84-68.74,30.78-102.18,47.42l-1.68-.09c2.7-6.59,5.25-13.26,7.95-19.85.09-.22,0-.69.17-1.08,13.1-31.92,26.73-63.64,39.59-95.66.38.6,1.37.36,1.98.37,41.13.51,82.33-.69,123.43.35Z" fill="#88c400"/>
    <path d="M565.24,417.45l-3,2.24c-26.85,12.78-54.21,24.58-80.98,37.52-1.78.86-4.03,1.67-5.19,3.2-9.49.09-18.99-.13-28.48-.01-.61,0-1.61-.23-1.98.37-.05.02.05.3,0,.36-.71.76-2.03,4.2-2.53,5.41l-54.93,25.47-1.81-.56c2.06-5.03,4.09-10.13,6.14-15.16l1.68.09c33.44-16.64,68.92-30.58,102.18-47.42.68-.34,1.35-.64,1.67-1.4,4.89-.02,11.48.54,16.12.02.54-.06.51-.1.86-.38.45-.35,4.12-9.09,4.7-10.47.81,1.15,1.8.42,2.77.06l53.24-24.97c-3.22,8.6-6.83,17.16-10.48,25.63Z" fill="#8ec500"/>
    <path d="M432.61,492.17c-.2,1.09.55.69,1.25.72,12.3.48,25.13.27,37.42.36l1.08,1.26-1.42,1.1c-23.19,11.58-48.12,21.12-71.11,32.94-.53.27-.95.59-1.19,1.16-8.25,0-16.51-.11-24.76,0-.61,0-1.61-.23-1.98.37h-1.81c.38-1.41,1.26-2.65,1.81-3.97l1.54.66,68.57-31.71c.69-.92-2.68-1.64-3.16-1.71-2.14-.29-4.43.02-6.59-.09-.24-.64.24-.83.36-1.08Z" fill="#a4c900"/>
    <path d="M366.11,507.69l-.81,1.2c-13.52,6.98-28.58,12.35-41.97,19.42-.82.43-1.44.86-2.03,1.58l42.28.18-.86.38c-6.7-.03-13.4-.04-20.1-.02-8.79.02-17.59-.02-26.38,0,.33-4.63.91-9.25,1.49-13.85.12-.99.57-2.26.68-3.12l.35.18.62-3.09,48.85-22.78c-.51-1.48.3-1.76.42-2.1-.5,7.38-1.65,14.69-2.53,22.02Z" fill="#8dc500"/>
    <path d="M436.58,482.43c-1.33,3.27-2.5,6.53-3.98,9.75-.12.25-.6.44-.36,1.08,2.16.11,4.45-.19,6.59.09.48.06,3.86.78,3.16,1.71l-68.57,31.71-1.54-.66c2.54-6.13,5.07-12.28,7.59-18.41.47,1.26,1.64.32,2.41.06l54.69-25.33Z" fill="#9bc800"/>
    <path d="M443.09,466.54c-2.19,5.29-4.35,10.58-6.51,15.88l-54.69,25.33c-.78.26-1.94,1.2-2.41-.06,2.24-5.43,4.65-10.82,6.87-16.24l1.81.56,54.93-25.47Z" fill="#93c600"/>
    <path d="M363.58,530.08c.72-7.47,1.63-14.93,2.53-22.38s2.03-14.64,2.53-22.02c.75-2.17,1.07-7.06,1.4-9.61,2.71-20.69,4.8-41.51,7.27-62.23h.36c-4.54,38.17-8.84,76.4-13.41,114.58l-.69,1.66Z" fill="#cbd000"/>
    <path d="M382.73,373.77c-1.55,13.34-3.49,26.82-5.06,40.07h-.36c1.61-13.46,3.44-27.06,5.06-40.43l.36.36Z" fill="#c9cf00"/>
    <path d="M382.73,373.77l-.36-.36c.55-4.55.8-9.18,1.45-13.72.61.21.4,1.47.36,1.98-.3,3.88-.99,8.16-1.44,12.1Z" fill="#cad000"/>
    <path d="M1195.9,374.85c4.87-5.06,9.86-10.01,14.64-15.16h49.33c.16.63-.26.72-.54,1.09-2.61,3.4-7.37,7.03-10.49,10.1-19.97,19.6-39.57,39.53-59.44,59.21-11.39,11.28-23.27,22.12-34.28,33.81-8.25,20.43-16.96,40.69-25.16,61.14-.63,1.57-1.21,3.04-1.64,4.68l-46.98.36,26.57-65.33.17-2.34-16.62-98.38-14.86,35.33c-3.59.11-7.2.03-10.79.05-14.19.09-28.4-.12-42.59.06l-53.55,130.62h-46.98s53.48-130.5,53.48-130.5c-10.94-.34-21.93-.15-32.88-.18-1.8,0-3.62,0-5.42,0l83.49-39.35c39.63-.06,79.27.04,118.9,0l7.95,64.26c16.28-16.09,31.81-32.97,47.7-49.46Z" fill="#f8d800"/>
    <path d="M717.04,359.69c7.4-.02,14.83-.08,22.23,0,.61,0,1.61-.23,1.98.37-2.11-.1-9.76-.38-11.31.08-.93.27-3.9,2.18-5.19,2.76-25.37,11.42-50.61,23.28-75.79,35.12-.93.44-2.18.87-2.76,1.75-3.78.02-7.57,0-11.35-.02-.44.06-.14.57-.21.74-.92,2.01-1.64,4.12-2.53,6.14l-57.1,26.71c3.61-8.78,7.21-17.58,10.84-26.35l100.74-46.84c2.91.15,6.01-.35,8.77-.45,7.14-.25,14.51.02,21.68,0Z" fill="#9ac700"/>
    <path d="M741.25,360.05c4.57.22,7.07,1.11,10.84,3.61l-.03,1.58c-21.99,10.97-44.73,20.73-66.96,31.32-1.86.89-4.15,1.84-5.65,3.2-11.08,0-22.17-.05-33.25,0,.58-.88,1.83-1.32,2.76-1.75,25.18-11.84,50.42-23.7,75.79-35.12,1.29-.58,4.26-2.49,5.19-2.76,1.55-.45,9.2-.18,11.31-.08Z" fill="#a4c900"/>
    <path d="M723.9,464.01c-1.32,3.2-2.69,6.39-3.91,9.65l-.79,1.18-3,2.24c-33.83,15.15-67.05,31.69-100.84,46.92-4.82,2.17-8.61,4.17-13.81,5.34-.6.13-1.25.11-1.61.74h-19.15c28.37-11.57,55.7-25.76,83.74-38.19.78-.44,1.57-.88.83-1.88.48-.02.97.04,1.45,0,.5-.04,1.03.09,1.53-.08l2.33-.94,53.25-24.97Z" fill="#e7d500"/>
    <path d="M713.06,490.37c-8.2,19.1-19.31,32.92-40.48,38.26-2.34.59-4.84,1.12-7.23,1.44h-37.23l5.67-1.74c25.62-12.15,51.46-23.86,77.07-36.01l2.19-1.96Z" fill="#f3d700"/>
    <path d="M755.71,368.35c.51,1.63.67,3,.72,4.69.02.71.2,2.96-.22,3.29l-52.54,24.15v-.36c-.38-.6-1.37-.36-1.98-.37-7.41-.08-14.83,0-22.23,0,1.5-1.36,3.79-2.31,5.65-3.2,22.23-10.59,44.97-20.36,66.96-31.32l.03-1.58c2.17,1.44,2.8,2.08,3.61,4.69Z" fill="#aecb00"/>
    <path d="M717.4,479.9c-1.45,3.49-2.84,6.99-4.34,10.47l-2.19,1.96c-25.62,12.15-51.45,23.86-77.07,36.01l-5.67,1.74h-16.62c1.31-1.5,3.96-1.04,5.67-2.1l97.31-45.39,2.91-2.68Z" fill="#edd600"/>
    <path d="M736.91,432.25c-2.27,5.54-4.59,11.09-6.87,16.61l-57.1,26.35c2.13-5.19,4.38-10.35,6.51-15.52.72-.12,1.39-.37,2.05-.66,18.31-7.87,36.21-17.23,54.3-25.54l1.11-1.24Z" fill="#d7d200"/>
    <path d="M730.05,448.85c-2.08,5.04-4.06,10.12-6.14,15.16l-53.25,24.97-2.33.94c-.5.18-1.02.04-1.53.08.37-.4.22-1.1.36-1.44,1.83-4.47,3.94-8.88,5.78-13.36l57.1-26.35Z" fill="#e2d400"/>
    <path d="M753.18,392.9c-1.88,5.29-4.42,10.34-6.51,15.52-.32-.89-.56.35-.66.6-.81,1.99-1.07,3.82-3.31,4.64l-54.94,25.44c1.88-4.59,3.91-9.14,5.78-13.72l56.15-26.04c.35-.16.49-.47.67-.77.55-.91,2.01-4.51,2.45-5.68h.36Z" fill="#c5cf00"/>
    <path d="M717.4,479.9l-2.91,2.68-97.31,45.39c-1.7,1.06-4.36.6-5.67,2.1h-11.57c.36-.63,1.01-.6,1.61-.74,5.2-1.16,8.99-3.16,13.81-5.34,33.79-15.23,67.01-31.77,100.84-46.92l3-2.24c-.29,1.79-1.12,3.41-1.81,5.05Z" fill="#ebd600"/>
    <path d="M740.89,422.5c-1.32,3.25-2.65,6.5-3.98,9.75l-1.11,1.24c-18.09,8.31-35.99,17.66-54.3,25.54-.66.29-1.34.54-2.05.66,1.47-3.59,2.86-7.24,4.34-10.83l57.1-26.35Z" fill="#d1d100"/>
    <path d="M746.67,408.42c-1.89,4.71-3.88,9.39-5.78,14.08l-57.1,26.35c1.33-3.24,2.65-6.51,3.98-9.75l54.94-25.44c2.24-.82,2.5-2.65,3.31-4.64.1-.25.34-1.49.66-.6Z" fill="#cbd000"/>
    <path d="M661.74,356.8c18.55-.06,37.11.04,55.66,0l-.36,2.89c-7.17.02-14.54-.25-21.68,0-11.32.01-22.65-.02-33.97,0l.36-2.89Z" fill="#8f9c01"/>
    <path d="M753.18,392.9h-.36c.84-2.26,1.56-5.21,2.17-7.58.98-3.84,2.44-8.3,1.45-12.27-.06-1.69-.22-3.06-.72-4.69,3.49,7.39.08,17.21-2.53,24.55Z" fill="#cfd100"/>
    <path d="M912.2,412.39c-5.64,13.94-10.96,28.92-17.28,42.48-1.62,3.48-3.99,8.24-6.21,11.31-2.76,3.82-7.52,8.25-11.59,10.62-3.77,2.19-8.06,3.53-12.37,4.25l-.56.52-1.49,48.51h-46.98s3.25-48.01,3.25-48.01h-41.38c-4.04,8.99-7.83,18.27-11.55,27.45-1.25,3.08-8.18,18.75-8.14,20.56h-47.34c4.15-10.25,8.46-20.45,12.65-30.68.87,0,1.64-.33,2.41-.66,37.38-15.79,73.82-35.72,111.2-51.74.88-.65,2.67-.75,2.76-2.12,4.4-.02,8.81,0,13.22.01l.52-.37c.04-.22-.07-.56,0-.72.9-2.17,1.98-4.32,2.89-6.5l56.02-24.91Z" fill="#f8d800"/>
    <path d="M839.55,444.88c-.09,1.37-1.88,1.46-2.76,2.12-37.38,16.02-73.82,35.94-111.2,51.74-.78.33-1.55.66-2.41.66,3.7-9.03,7.5-18.05,11.2-27.07,18.7-8.32,37.18-17.14,55.79-25.68,1.02-.47,1.8-.97,2.66-1.68,15.57-.19,31.16,0,46.73-.08Z" fill="#f3d700"/>
    <path d="M802.69,419.97c-3.36,8.13-6.63,16.32-9.76,24.55h60.35s-.52.37-.52.37c-4.41,0-8.82-.03-13.22-.01-15.57.07-31.15-.11-46.73.08-.86.7-1.64,1.21-2.66,1.68-18.6,8.54-37.08,17.36-55.79,25.68,3.4-8.29,6.72-16.62,10.12-24.91l58.19-27.44Z" fill="#e4d500"/>
    <path d="M897.38,360.05c4.2.03,8.45-.12,12.65,0-.23,1.29-2.39,1.94-3.48,2.48-25.01,12.14-50.53,23.5-75.79,35.12-1.23.57-2.88,1.21-3.85,2.11-1.32,0-2.65,0-3.98,0-3.31,0-6.63-.05-9.94,0-.61,0-1.61-.23-1.98.37-1.03,2.54-2.19,5.06-3.25,7.58l-57.83,26.71c1.37-3.34,2.6-6.77,3.98-10.11l137.7-64.26c1.92,0,3.86-.01,5.78,0Z" fill="#d7d200"/>
    <path d="M891.6,360.05l-137.7,64.26c1.29-3.13,2.69-6.25,3.98-9.39l117.46-54.87c5.41-.03,10.85-.02,16.26,0Z" fill="#d1d100"/>
    <path d="M897.38,359.69v.36c-1.92-.01-3.86,0-5.78,0-5.41-.02-10.85-.03-16.26,0l-13.84.08c-.57.25-.88.83-1.45,1.08-33.09,14.99-65.8,30.84-98.92,45.77,1.68-4.09,3.38-8.19,5.06-12.27,1.97.33,4.49-1.25,6.39-2.1,21.36-9.59,42.74-19.6,63.85-29.72,1.62-.78,3.67-1.6,4.93-2.84,5.52-.04,11.23-.33,16.62-.36,13.12-.08,26.27,0,39.39,0Z" fill="#c8d000"/>
    <path d="M875.33,360.05l-117.46,54.87c1.09-2.64,2.17-5.3,3.25-7.94,33.12-14.93,65.83-30.78,98.92-45.77.56-.26.88-.83,1.45-1.08l13.84-.08Z" fill="#ccd000"/>
    <path d="M807.75,407.7c-1.71,4.07-3.38,8.2-5.06,12.27l-58.19,27.44c1.78-4.34,3.64-8.66,5.42-13l57.83-26.71Z" fill="#dcd300"/>
    <path d="M841.36,360.05c-1.26,1.24-3.31,2.06-4.93,2.84-21.12,10.12-42.5,20.12-63.85,29.72-1.9.85-4.42,2.43-6.39,2.1,1.44-3.49,2.9-6.98,4.34-10.47l1.82.22c16.16-7.82,32.8-14.74,48.91-22.65.89-.44,1.94-.78,2.4-1.75,5.9-.02,11.81.04,17.71,0Z" fill="#bece00"/>
    <path d="M823.65,360.05c-.46.98-1.51,1.31-2.4,1.75-16.11,7.91-32.75,14.83-48.91,22.65l-1.82-.22c1.13-2.74,2.12-5.56,3.25-8.3.75.1,1.36-.04,2.06-.28,4.21-1.46,9.83-4.55,14.08-6.51,5.3-2.45,12.09-5.14,17.02-7.92.59-.33.76-1.09,1.07-1.18,2.32-.63,12.39.02,15.64,0Z" fill="#bccd00"/>
    <path d="M784.98,359.69c24.2-.36,48.44.27,72.64,0h.36c-5.39.03-11.11.32-16.62.36-5.9.04-11.81-.02-17.71,0-3.25.01-13.32-.64-15.64,0-.3.08-.47.84-1.07,1.18-4.93,2.78-11.72,5.47-17.02,7.92-4.25,1.97-9.87,5.05-14.08,6.51-.71.25-1.31.38-2.06.28,2.22-5.38,4.5-10.75,6.55-16.2,1.54-.12,3.1-.03,4.65-.05Z" fill="#b5cc00"/>
    <path d="M857.62,356.8v2.89c-24.2.27-48.45-.36-72.64,0v-2.89c24.18-.39,48.45-.01,72.64,0Z" fill="#819500"/>
    <path d="M551.51,457.88c-1.11,5.69-3.34,9.91-5.42,15.16l-119.63,56.68c-9.27.01-18.56,0-27.83,0,.24-.56.66-.88,1.19-1.16,22.99-11.82,47.92-21.36,71.11-32.94l1.42-1.1-1.08-1.26c6.74.05,13.49.14,20.2-.4,1.13-4.01,3.15-7.69,4.74-11.51l-.17,1.44.94.18c17.12-8.52,35.68-15.53,52.61-24.29.43-.22,2.18-2.34,1.91-.79Z" fill="#adcb00"/>
    <path d="M548.98,444.52c-14.69,7.33-29.74,14.07-44.67,20.91l-1.23-.7c.4-.97.68-2.23,1.08-3.25.02-.05.86-.29.18-.72h-58.73c.38-.6,1.37-.36,1.98-.37,9.49-.12,18.99.1,28.48.01,1.16-1.53,3.41-2.34,5.19-3.2,26.77-12.94,54.13-24.74,80.98-37.52l3-2.24c-1.3,3.01-2.25,6.1-3.79,9.03-3.46,6.58-8.26,12.18-14.64,16.06.95.61,1.46,1.13,2.16,1.99Z" fill="#9bc700"/>
    <path d="M541.39,484.59l-96.5,45.12c-4.33.01-8.68,0-13.01,0-1.8,0-3.62,0-5.42,0l119.63-56.68c-1.54,3.88-3.09,7.7-4.7,11.55Z" fill="#b5cc00"/>
    <path d="M541.39,484.59c-1.71,4.1-3.26,8.2-5.06,12.27l-2.87,2.01c-20.15,9.37-40.4,18.54-60.5,28.01-1.05.49-4.54,2.77-4.82,2.83-4.47.99-17.74-.01-23.24,0l96.5-45.12Z" fill="#bbcd00"/>
    <path d="M551.51,457.88c.27-1.54-1.48.57-1.91.79-16.94,8.76-35.49,15.78-52.61,24.29l-.94-.18.17-1.44c2.3-5.51,4.6-11.1,6.87-16.61l1.23.7c14.93-6.84,29.98-13.58,44.67-20.91,3.85,4.65,3.63,7.71,2.53,13.36Z" fill="#a4c900"/>
    <path d="M536.33,496.86c-6.05,13.68-13.08,23.3-27.47,29.24-4.95,2.04-11.8,3.68-17.15,3.99-19.12,1.11-40.46-.02-59.83-.02v-.36c4.33,0,8.68.01,13.01,0,5.5-.02,18.77.98,23.24,0,.28-.06,3.77-2.34,4.82-2.83,20.11-9.47,40.35-18.64,60.5-28.01l2.87-2.01Z" fill="#c4cf00"/>
    <path d="M466.58,359.69c22.28-.05,44.58-.01,66.86,0,9.66,0,20.71-.68,30.19-.02.75.05,1.5,0,1.97.74-41.09-1.04-82.3.15-123.43-.35-.61,0-1.61.23-1.98-.37,8.79-.01,17.59.02,26.38,0Z" fill="#75b100"/>
    <path d="M1021.34,360.05l-83.49,39.35c-4.93-.01-9.88.01-14.82,0,1.88-5.41,4.35-10.59,6.5-15.88,15.55-7.29,31.14-14.54,46.75-21.71,1.02-.47,1.8-.97,2.66-1.68,14.13-.15,28.26-.06,42.39-.08Z" fill="#f3d700"/>
    <path d="M921.59,389.29c-2.84,7.85-6.27,15.39-9.4,23.1l-56.02,24.91c3.07-7.3,6.05-14.69,9.04-22.02l56.38-25.99Z" fill="#f3d700"/>
    <path d="M921.59,389.29l-56.38,25.99c1.9-4.66,4.41-10.04,5.78-14.8,0-.02.71-.22.18-.36-6.68,0-13.38.01-20.06,0,.38-.6,1.37-.36,1.98-.37,4.37-.05,8.76.57,12.83-1.26l57.44-26.74,1.48-1.96c1.28,6.77-1.03,13.34-3.25,19.49Z" fill="#e8d500"/>
    <path d="M911.84,360.05c3.61.21,7.13,1.46,9.76,3.97l-76.97,35.57c-5.9.31-11.82.17-17.72.17.97-.91,2.62-1.55,3.85-2.11,25.26-11.62,50.79-22.98,75.79-35.12,1.1-.53,3.26-1.19,3.48-2.48.6.02,1.21-.03,1.81,0Z" fill="#ddd300"/>
    <path d="M921.59,364.02c1.92,1.83,2.74,3.09,3.25,5.78l-1.48,1.96-57.44,26.74c-4.07,1.83-8.47,1.21-12.83,1.26-.61,0-1.61-.23-1.98.37-9.39-.02-18.8-.04-28.19,0v-.36c1.32,0,2.65,0,3.98,0,5.9,0,11.82.14,17.72-.17l76.97-35.57Z" fill="#e2d400"/>
    <path d="M954.48,359.69c29.39-.13,58.8,0,88.18,0,26.5,0,53.01,0,79.51,0,5.36,0,10.73-.06,16.09,0,.61,0,1.61-.23,1.98.37-39.63.04-79.27-.06-118.9,0-14.12.02-28.26-.08-42.39.08-.86.7-1.64,1.21-2.66,1.68-15.61,7.17-31.2,14.42-46.75,21.71,3.19-7.82,6.2-15.73,9.57-23.48.28-.36.68-.32,1.08-.37,4.06-.48,9.99.04,14.3.02Z" fill="#e6d500"/>
    <path d="M1042.67,356.8v2.89c-29.39,0-58.8-.13-88.18,0l.36-2.89c29.27,0,58.55-.01,87.82,0Z" fill="#6d8c00"/>
    <path d="M857.62,356.8c16.62,0,33.26,0,49.88,0v2.89c-3.37-.01-6.75,0-10.12,0-13.12,0-26.27-.08-39.39,0h-.36v-2.89Z" fill="#789101"/>
    <path d="M907.5,359.69c1.37,0,3.26-.3,4.34.36-.6-.03-1.21.02-1.81,0-4.2-.12-8.45.03-12.65,0v-.36c3.37,0,6.75-.01,10.12,0Z" fill="#ccd000"/>
    <path d="M661.38,359.69c11.32-.02,22.65.01,33.97,0-2.76.1-5.86.6-8.77.45l-100.74,46.84c3.52-8.51,6.34-17.35,10.91-25.38.98-1.72,2.75-3.67,3.54-5.3,7.87-9.67,19-15.82,31.61-16.62,9.35-.6,19.96.03,29.47.02Z" fill="#8dc500"/>
    <path d="M611.5,456.79c-4.09,9.99-8.14,19.99-12.29,29.96l-1.8,2.71-1.2.97-49.54,23.07-.58,1.77c-1.39-8.52,1.06-13.34,3.98-20.94l55.79-25.68c1.11-.87,4.19-9.3,4.99-11.26.1-.25.34-1.49.66-.6Z" fill="#c8d000"/>
    <path d="M615.48,447.77c-1.24,3.02-2.74,6.01-3.98,9.02-.32-.89-.56.35-.66.6-.8,1.97-3.88,10.4-4.99,11.26l-55.79,25.68c2.71-7.07,5.83-13.94,8.67-20.94l55.92-25.38.46-.61.36.36Z" fill="#bbcd00"/>
    <path d="M632.1,406.62c-.48,1.08-.97,2.17-1.45,3.25-2.6,5.96-5.07,12.02-7.59,18.05l-56.38,25.63c2.75-6.74,5.54-13.48,8.31-20.22l57.1-26.71Z" fill="#a5c900"/>
    <path d="M599.22,486.76c-.18.43-1.21,3.13-1.08,3.25,8.43.01,16.87,0,25.3,0l2.17,1.09-.83.79c-22.18,10.58-44.73,20.41-66.88,31.03-1.62.78-3.67,1.6-4.93,2.84-4.08-2.84-6.05-5.44-6.87-10.47l.58-1.77,49.54-23.07,1.2-.97,1.8-2.71Z" fill="#d4d200"/>
    <path d="M623.07,427.92c-2.7,6.47-5.61,12.88-7.95,19.49l-.46.61-55.92,25.38c2.66-6.55,5.27-13.26,7.95-19.85l56.38-25.63Z" fill="#b0cb00"/>
    <path d="M645.48,490.01l1.81,1.44-83.12,38.27c-4.33-.55-7.61-1.47-11.2-3.97,1.26-1.24,3.31-2.06,4.93-2.84,22.15-10.62,44.7-20.45,66.88-31.03l.83-.79-2.17-1.09c7.34.01,14.7.03,22.05,0Z" fill="#dcd300"/>
    <path d="M665.35,490.01c.74,1-.06,1.44-.83,1.88-28.03,12.43-55.37,26.62-83.74,38.19-5.54-.13-11.15.34-16.62-.36l83.12-38.27-1.81-1.44c6.55-.03,13.37.27,19.88,0Z" fill="#e2d400"/>
    <path d="M139.5,359.69c25.03-.26,50.14-.15,75.17,0,8.58.05,16.38-.76,24.65,1.91,15.25,4.92,9.72,21.34,5.61,32.48-2.93,7.93-6.7,15.58-9.63,23.51l-45.94.22,8.31-20.58h-62.16l-6.87,17.69c19.85,5.97,39.82,11.62,59.63,17.69,6.77,2.07,22.74,5.81,27.3,10.45,6.9,7.03.45,21.08-2.56,28.88-10.17,26.41-18.41,51.58-49.97,57.3-1.85.34-4.4.09-5.86,1.19-25.77-.21-51.57.23-77.34,0-10.7-.1-26.57.68-32.59-10.23-3.23-5.86-2.31-12.85-.48-19.01,3.18-10.72,9.37-21.41,12.83-32.13h46.26s-9.03,23.1-9.03,23.1h62.16l7.59-19.85c-.49.02-.98-.02-1.45-.17-17.65-5.55-35.43-10.66-53.12-16.08-3.33-1.02-6.8-2.33-9.89-3.31-19.43-6.1-31.55-6.3-22.9-31.08,3.62-10.36,8.85-22.8,13.39-32.84,5.32-11.77,12.25-21.08,24.74-25.83,8.19-3.12,13.53-3.25,22.14-3.33Z" fill="#88c400"/>
    <path d="M1042.67,356.8c26.5,0,53.01,0,79.51,0v2.89c-26.5,0-53.01,0-79.51,0v-2.89Z" fill="#5e8503"/>
    <path d="M139.5,356.8c25.16-.4,50.37.3,75.53,0l-.36,2.89c-25.03-.15-50.14-.26-75.17,0v-2.89Z" fill="#cdb900"/>
    <path d="M398.63,529.71c9.27,0,18.56.01,27.83,0,1.8,0,3.62,0,5.42,0v.36c-19.99,0-40,0-59.99,0,.38-.6,1.37-.36,1.98-.37,8.25-.1,16.52,0,24.76,0Z" fill="#bbcd00"/>
    <path d="M284.79,462.57l44.82-65.52c.67-.31,3-.3,3.8-.19.53.08.59-.21.54.54l-8.68,65.16h-40.48ZM322.74,459.32l7.59-57.04-39.03,57.04h31.44Z" fill="#bbb100"/>
    <path d="M527.66,396.87c-2.54,6.28-5.17,12.53-7.78,18.78-.16.38-.08.86-.17,1.08-.58,1.38-4.25,10.12-4.7,10.47h-55.66v-.36h33.61s0-2.53,0-2.53c6.62-.02,13.27.15,19.89-.17l9.75-23.83c-8.9-.32-17.84-.21-26.75-.19v-3.25c10.6-.02,21.21.02,31.8,0Z" fill="#a3a600"/>
    <path d="M495.85,396.87v3.25c-7.33.02-14.67-.06-22,.05l-9.8,23.96c9.62.3,19.28.2,28.91.18v2.53s-33.61,0-33.61,0l12.65-29.96c7.95-.01,15.91.02,23.85,0Z" fill="#a9a800"/>
    <path d="M527.66,396.87c-10.6.02-21.21-.02-31.8,0-7.95.02-15.91-.01-23.85,0h55.66Z" fill="#c4d600"/>
    <path d="M515.01,427.19c-.36.28-.33.32-.86.38-4.64.52-11.23-.04-16.12-.02-11.74.04-26.39,1.02-37.78.02-.35-.03-.88.1-.89-.38h55.66Z" fill="#72a800"/>
    <path d="M504.17,461.49c-.41,1.02-.69,2.28-1.08,3.25-2.26,5.51-4.57,11.09-6.87,16.61-1.59,3.82-3.61,7.5-4.74,11.51-6.71.55-13.46.46-20.2.4-12.29-.09-25.12.12-37.42-.36-.7-.03-1.45.37-1.25-.72,1.48-3.22,2.65-6.48,3.98-9.75,2.15-5.3,4.32-10.59,6.51-15.88.5-1.22,1.82-4.65,2.53-5.41l58.55.36ZM499.47,464.38h-52.04l-10.12,25.63h51.5l10.66-25.63Z" fill="#a9a800"/>
    <path d="M445.62,460.77h58.73c.68.43-.16.67-.18.72l-58.55-.36c.05-.06-.05-.34,0-.36Z" fill="#d6d300"/>
    <path d="M363.58,530.08l-42.28-.18c.58-.72,1.21-1.15,2.03-1.58,13.39-7.07,28.45-12.44,41.97-19.42l.81-1.2c-.9,7.45-1.81,14.91-2.53,22.38Z" fill="#9ac700"/>
    <path d="M650.9,400.12c1.65,1.78,7.39-.81,5.78,3.25-6.61.02-13.23-.05-19.84.04l-34.01,83.17c15.04.28,30.12.23,45.17.18v2.89c5.51-.51,12.18.66,17.55.02.94-.11,1.1-.41,1.6-1.11-.14.34,0,1.05-.36,1.44-.48.04-.97-.02-1.45,0-6.5.27-13.33-.03-19.88,0-7.34.03-14.7.01-22.05,0-8.43-.01-16.87.01-25.3,0-.13-.11.9-2.82,1.08-3.25,4.14-9.97,8.2-19.97,12.29-29.96,1.23-3.01,2.74-6.01,3.98-9.02,5.16-12.58,10.3-25.2,15.18-37.9.47-1.08.97-2.17,1.45-3.25.89-2.02,1.61-4.12,2.53-6.14,5.31-.66,10.88-.36,16.26-.36Z" fill="#979f00"/>
    <path d="M646.2,399.76c11.08-.05,22.17,0,33.25,0,7.4,0,14.83-.08,22.23,0,.61,0,1.61-.23,1.98.37-17.58,0-35.18-.01-52.77,0-5.39,0-10.95-.3-16.26.36.08-.17-.22-.69.21-.74,3.78.02,7.57.04,11.35.02Z" fill="#b5cc00"/>
    <path d="M703.66,400.12v.36c-1.61,3.42-2.91,6.98-4.34,10.47-1.96,4.79-3.82,9.65-5.78,14.44s-3.9,9.13-5.78,13.72c-1.33,3.24-2.64,6.51-3.98,9.75-1.48,3.59-2.86,7.24-4.34,10.83-2.13,5.18-4.37,10.34-6.51,15.52-1.84,4.47-3.95,8.89-5.78,13.36-.51.7-.66,1-1.6,1.11-5.37.64-12.04-.53-17.55-.02v-2.89c4.76-.02,11.24.54,15.74.02.52-.06.95-.03,1.21-.59l34-82.64c-14.08-.3-28.2-.21-42.28-.18,1.61-4.06-4.13-1.47-5.78-3.25,17.58-.01,35.18,0,52.77,0Z" fill="#909c00"/>
    <path d="M754.98,385.32l-55.66,25.63c1.43-3.49,2.73-7.05,4.34-10.47l52.54-24.15c.42-.32.25-2.58.22-3.29.99,3.97-.46,8.43-1.45,12.27Z" fill="#b5cc00"/>
    <path d="M754.98,385.32c-.61,2.37-1.32,5.32-2.17,7.58-.44,1.17-1.9,4.77-2.45,5.68-.19.31-.32.61-.67.77l-56.15,26.04c1.96-4.79,3.82-9.65,5.78-14.44l55.66-25.63Z" fill="#bbcd00"/>
    <path d="M822.93,400.12c9.39-.04,18.8-.02,28.19,0,6.68.01,13.37,0,20.06,0,.53.15-.17.34-.18.36l-32-.02c-.82.08-1.28.64-2.13.76-2.19.31-6.69-1.35-5.98,2.15-5.04.02-12.08-.59-16.83-.02-.4.05-.79,0-1.07.38l-15.36,37.19-.36.72h29.27s.21,1.85.21,1.85c8.11.76,16.4.98,24.56.7.69-.02,1.37.04,1.97-.38-.07.16.04.5,0,.72h-60.35c3.12-8.23,6.4-16.42,9.76-24.55,1.68-4.08,3.35-8.21,5.06-12.27,1.06-2.52,2.22-5.04,3.25-7.58,3.97-.01,7.96.02,11.93,0Z" fill="#819500"/>
    <path d="M871,400.48c-1.37,4.76-3.89,10.14-5.78,14.8-2.98,7.33-5.97,14.72-9.04,22.02-.91,2.17-1.99,4.32-2.89,6.5-.6.41-1.28.35-1.97.38-8.16.29-16.46.06-24.56-.7l-.21-1.85h-29.27s.36-.72.36-.72l53.43.3,15.6-37.84c-11.92.02-23.86-.04-35.78,0-.71-3.49,3.79-1.84,5.98-2.15.86-.12,1.31-.68,2.13-.76l32,.02Z" fill="#7c9300"/>
    <path d="M822.93,399.76v.36c-3.97.02-7.96-.01-11.93,0,.38-.6,1.37-.36,1.98-.37,3.31-.04,6.64,0,9.94,0Z" fill="#ddd300"/>
    <path d="M615.48,447.77l-.36-.36c2.34-6.62,5.25-13.03,7.95-19.49,2.52-6.03,4.99-12.09,7.59-18.05-4.88,12.7-10.02,25.32-15.18,37.9Z" fill="#cad000"/>
    <path d="M322.74,459.32h-31.44l39.03-57.04-7.59,57.04ZM312.98,448.49l.72-5.05-3.61,4.87,2.89.18Z" fill="#003d64"/>
    <path d="M495.85,400.12c8.91-.02,17.85-.14,26.75.19l-9.75,23.83c-6.62.32-13.27.15-19.89.17-9.63.03-19.29.13-28.91-.18l9.8-23.96c7.33-.1,14.67-.03,22-.05ZM515.73,404.82l-38.43.34-5.66,14.09,37.72.31,6.37-14.75Z" fill="#003d64"/>
    <path d="M499.47,464.38l-10.66,25.63h-51.5l10.12-25.63h52.04ZM492.24,469.07h-41.02l-6.69,15.88h41.56l6.14-15.88Z" fill="#003d64"/>
    <path d="M656.68,403.37c14.09-.03,28.21-.12,42.28.18l-34,82.64c-.26.56-.7.53-1.21.59-4.5.52-10.98-.04-15.74-.02-15.05.05-30.13.11-45.17-.18l34.01-83.17c6.61-.09,13.23-.03,19.84-.04ZM691.38,408.42l-51.27.05-18.48,45.8c-1.3,1.14-8.45,20.21-9.76,23.46-.53,1.31-1.29,2.64-1.81,3.97h22.05c9.1.21,18.17.48,27.29.37.61,0,1.61.23,1.98-.37,5.54-12.48,10.39-25.26,15.54-37.9,3.98-9.75,8.14-19.4,11.93-29.24.79-2.05,1.8-4.06,2.53-6.14Z" fill="#003d64"/>
    <path d="M830.88,403.37c11.92-.04,23.86.03,35.78,0l-15.6,37.84-53.43-.3,15.36-37.19c.28-.37.67-.33,1.07-.38,4.74-.57,11.79.04,16.83.02ZM853.65,408.42c-12.5-.18-25.04.1-37.55.04l-11.21,27.62,42.97.14,11.21-27.26c.08-.74-.04-.47-.54-.54-1.39-.2-3.39.02-4.89,0Z" fill="#003d64"/>
    <polygon points="515.73 404.82 509.36 419.56 471.64 419.25 477.3 405.16 515.73 404.82" fill="#034e56"/>
    <polygon points="492.24 469.07 486.1 484.95 444.53 484.95 451.22 469.07 492.24 469.07" fill="#055750"/>
    <path d="M688.85,414.56c-3.78,9.84-7.95,19.49-11.93,29.24l-1.27.36-37.04,37.01c-.15.82.36.5.89.54,7.07.52,14.73-.38,21.87,0-.38.6-1.37.36-1.98.37-9.12.11-18.19-.16-27.29-.37-3.61-.08-7.24.06-10.84,0l.73-1.26,65.22-65.18,1.64-.71Z" fill="#0d822f"/>
    <path d="M691.38,408.42c-.73,2.08-1.74,4.08-2.53,6.14l-1.64.71-65.22,65.18-.73,1.26c3.61.07,7.24-.08,10.84,0h-22.05c.51-1.33,1.28-2.66,1.81-3.97l69.39-69.31h10.12Z" fill="#0c7d33"/>
    <path d="M681.26,408.42l-69.39,69.31c1.31-3.25,8.46-22.32,9.76-23.46.11-.1.68-.12,1.09-.52,15.27-14.7,30.05-30.18,44.88-45.25,4.54-.15,9.11-.08,13.66-.08Z" fill="#0c7c34"/>
    <path d="M621.62,454.27l18.48-45.8,51.27-.05h-10.12c-4.55,0-9.11-.07-13.66.08-14.83,15.07-29.6,30.55-44.88,45.25-.42.4-.98.42-1.09.52Z" fill="#0b7638"/>
    <path d="M676.92,443.8c-5.15,12.64-10,25.42-15.54,37.9-7.14-.38-14.8.52-21.87,0-.54-.04-1.05.28-.89-.54l37.04-37.01,1.27-.36Z" fill="#0e872b"/>
    <path d="M853.65,408.42l-26.74,27.26c-.15.82.36.5.89.54,6.49.47,13.52-.35,20.06,0l-42.97-.14,11.21-27.62c12.5.06,25.04-.23,37.55-.04Z" fill="#14a713"/>
    <path d="M853.65,408.42c1.5.02,3.5-.2,4.89,0,.5.07.62-.2.54.54l-11.21,27.26c-6.55-.35-13.57.47-20.06,0-.54-.04-1.05.28-.89-.54l26.74-27.26Z" fill="#15ab10"/>
  </g>
</svg>